<svg xmlns="http://www.w3.org/2000/svg" width="48" height="48" viewBox="0 0 32 32" fill="none" xmlns:v="https://vecta.io/nano"><path d="M8.9 1.1L1.1 8.901c-.706.706-1.1 1.657-1.1 2.65v26.573C0 39.162.838 40 1.875 40h36.25C39.163 40 40 39.162 40 38.125V1.875C40 .838 39.163 0 38.125 0H11.556a3.73 3.73 0 0 0-2.65 1.1H8.9z" fill="url(#A)"/><path d="M9.107 1.6h.008l.147-.148A3.23 3.23 0 0 1 11.556.5h26.569c.761 0 1.375.614 1.375 1.375v36.249c0 .762-.614 1.375-1.375 1.375H1.875C1.114 39.5.5 38.886.5 38.125V11.552c0-.861.341-1.684.954-2.297L9.107 1.6z" stroke="#fff" stroke-opacity=".25"/><path d="M28.301 26.354h-2.896V14.7h7.719v2.714h-4.823v2.08h4.546v2.646h-4.546v4.215h0z" fill="#fff"/><path opacity=".05" d="M24.642 21.463h2.87c-.425 2.966-2.918 4.928-5.939 4.928-3.308 0-6.002-2.48-6.002-5.819-.007-.777.144-1.547.442-2.263a5.73 5.73 0 0 1 1.296-1.905 6.01 6.01 0 0 1 4.263-1.701c2.993 0 5.556 1.977 5.921 4.896h-2.867c-.862-3.306-6.234-2.983-6.234.973s5.439 4.247 6.25.892v-.001z" fill="#002447"/><path d="M24.054 21.463c-.492 1.669-2.245 2.661-3.97 2.246s-2.808-2.091-2.449-3.792 2.027-2.823 3.781-2.539a3.13 3.13 0 0 1 1.874.975 3.21 3.21 0 0 1 .748 1.246h2.784c-.364-2.925-2.935-4.895-5.921-4.895a6.01 6.01 0 0 0-4.264 1.7 5.73 5.73 0 0 0-1.297 1.905c-.299.717-.449 1.487-.442 2.264 0 3.339 2.678 5.818 6.004 5.818 3.019 0 5.505-1.962 5.937-4.928h-2.785 0z" fill="#fff"/><path opacity=".05" d="M15.404 24.658h-4.03l-.659 1.694H7.632l4.72-11.664h2.057l4.907 11.668h-3.256l-.656-1.697h.001zm-2.885-2.887l-.101.263h1.957l-.068-.198-.911-2.501-.877 2.436z" fill="#002447"/><path d="M14.641 24.658h-4.023l-.658 1.694H6.875l4.72-11.664h2.057l4.907 11.668h-3.255l-.664-1.697zm-2.878-2.887l-.101.263h1.957l-.068-.198-.91-2.501-.877 2.436h0z" fill="#fff"/><defs><radialGradient id="A" cx="0" cy="0" r="1" gradientUnits="userSpaceOnUse" gradientTransform="rotate(45) scale(56.5685)"><stop stop-color="#0ecad4"/><stop offset="1" stop-color="#006bd6"/></radialGradient></defs></svg>