<?xml version="1.0" encoding="UTF-8"?>
<svg version="1.1" xmlns="http://www.w3.org/2000/svg" width="128" height="128">
<path d="M0 0 C42.24 0 84.48 0 128 0 C128 42.24 128 84.48 128 128 C85.76 128 43.52 128 0 128 C0 85.76 0 43.52 0 0 Z " fill="#FD7AE4" transform="translate(0,0)"/>
<path d="M0 0 C8.89128385 7.46809155 15.03454115 17.48778106 16.5546875 29.11328125 C17.20880901 37.87422016 16.37211815 45.18294704 13.4296875 53.46875 C12.39762576 56.12371752 12.39762576 56.12371752 12.5546875 59.11328125 C21.4646875 63.07328125 21.4646875 63.07328125 30.5546875 67.11328125 C30.5546875 67.44328125 30.5546875 67.77328125 30.5546875 68.11328125 C29.68585938 68.17902344 28.81703125 68.24476562 27.921875 68.3125 C24.09278233 68.84788768 21.0711904 69.47808654 17.5546875 71.11328125 C14.66880092 75.17300092 13.03448946 79.37656357 11.5546875 84.11328125 C9.65968965 80.66472661 8.55828635 77.1252774 7.4296875 73.36328125 C7.07648438 72.1928125 6.72328125 71.02234375 6.359375 69.81640625 C5.96105469 68.47835937 5.96105469 68.47835937 5.5546875 67.11328125 C4.96042969 67.70496094 4.36617188 68.29664062 3.75390625 68.90625 C-7.57550285 79.70707081 -19.26941834 83.62039493 -34.76171875 83.359375 C-46.8943199 82.54881946 -58.33726381 76.11500264 -66.4453125 67.11328125 C-75.30660675 55.20242447 -79.12932923 42.96177491 -77.4453125 28.11328125 C-74.2947632 14.62134561 -67.18225111 3.58046977 -55.4453125 -3.88671875 C-37.10763622 -14.73313611 -16.79217559 -12.95626327 0 0 Z " fill="#93013C" transform="translate(94.4453125,27.88671875)"/>
<path d="M0 0 C6.04476527 1.79486204 11.66175847 4.49322293 17.375 7.125 C18.39722656 7.59292969 19.41945313 8.06085938 20.47265625 8.54296875 C22.98303821 9.69258292 25.49209231 10.84500064 28 12 C28 12.33 28 12.66 28 13 C26.69675781 13.09861328 26.69675781 13.09861328 25.3671875 13.19921875 C21.53809483 13.73460643 18.5165029 14.36480529 15 16 C12.11411342 20.05971967 10.47980196 24.26328232 9 29 C7.0795907 25.55179841 6.09534735 22.04955088 5.0625 18.25 C3.93654692 14.19741232 2.78844682 10.2278836 1.25 6.3125 C0 3 0 3 0 0 Z " fill="#0C067E" transform="translate(97,83)"/>
<path d="M0 0 C2.31 0 4.62 0 7 0 C7 12.54 7 25.08 7 38 C5.02 38 3.04 38 1 38 C0 37 0 37 -0.11352539 33.48999023 C-0.11336626 31.92951578 -0.10767142 30.36903607 -0.09765625 28.80859375 C-0.0962413 27.98875504 -0.09482635 27.16891632 -0.09336853 26.32423401 C-0.08775289 23.69528618 -0.07519779 21.06642227 -0.0625 18.4375 C-0.05748701 16.65950643 -0.05292376 14.88151154 -0.04882812 13.10351562 C-0.03777839 8.73564455 -0.02050331 4.36783652 0 0 Z " fill="#F46ED5" transform="translate(47,43)"/>
<path d="M0 0 C4.62 0 9.24 0 14 0 C14 2.31 14 4.62 14 7 C9.38 7 4.76 7 0 7 C0 4.69 0 2.38 0 0 Z " fill="#F671D7" transform="translate(56,74)"/>
<path d="M0 0 C1.51400391 0.01740234 1.51400391 0.01740234 3.05859375 0.03515625 C4.07050781 0.04417969 5.08242187 0.05320313 6.125 0.0625 C7.29869141 0.07990234 7.29869141 0.07990234 8.49609375 0.09765625 C8.49609375 2.40765625 8.49609375 4.71765625 8.49609375 7.09765625 C4.53609375 7.09765625 0.57609375 7.09765625 -3.50390625 7.09765625 C-3.50390625 0.13665781 -3.50390625 0.13665781 0 0 Z " fill="#F672D8" transform="translate(61.50390625,46.90234375)"/>
<path d="M0 0 C4.29 0 8.58 0 13 0 C13 1.98 13 3.96 13 6 C8.71 6 4.42 6 0 6 C0 4.02 0 2.04 0 0 Z " fill="#FC78E1" transform="translate(57,61)"/>
</svg>
