<?xml version="1.0" encoding="UTF-8"?>
<svg version="1.1" xmlns="http://www.w3.org/2000/svg" width="128" height="128">
<path d="M0 0 C42.24 0 84.48 0 128 0 C128 42.24 128 84.48 128 128 C85.76 128 43.52 128 0 128 C0 85.76 0 43.52 0 0 Z " fill="#6C6E71" transform="translate(0,0)"/>
<path d="M0 0 C42.24 0 84.48 0 128 0 C128 42.24 128 84.48 128 128 C85.76 128 43.52 128 0 128 C0 85.76 0 43.52 0 0 Z M15 19 C13.77003766 22.68988702 13.83650373 26.11264212 13.82299805 29.95629883 C13.81642685 30.76639908 13.80985565 31.57649933 13.80308533 32.41114807 C13.78336828 35.09311008 13.77169366 37.77501615 13.76171875 40.45703125 C13.75764322 41.37352636 13.7535677 42.29002148 13.74936867 43.23428917 C13.72851532 48.08465728 13.71421008 52.93499716 13.70483398 57.78540039 C13.69376746 62.7924434 13.65936269 67.79904226 13.61966228 72.80592823 C13.59350662 76.65871502 13.58514311 80.51139577 13.58155251 84.36426353 C13.57668431 86.20982553 13.56506365 88.05538272 13.54651451 89.90085793 C13.52214377 92.48610191 13.52308401 95.07019368 13.5300293 97.65551758 C13.51721924 98.41469482 13.50440918 99.17387207 13.49121094 99.95605469 C13.5415703 105.11034873 14.6603233 108.08455259 18 112 C21.52325225 114.7315657 25.70405448 114.28873285 29.97802734 114.2746582 C30.77852005 114.27976913 31.57901276 114.28488007 32.40376282 114.29014587 C35.04789728 114.30403664 37.6917709 114.30308533 40.3359375 114.30078125 C42.17672828 114.30466881 44.01751816 114.3090036 45.85830688 114.31376648 C49.71676541 114.32122783 53.57513244 114.32093827 57.43359375 114.31567383 C62.3721723 114.30988298 67.31037535 114.32680128 72.24889183 114.3500185 C76.0510781 114.36476937 79.85317425 114.36562563 83.65538406 114.36250877 C85.4758033 114.36302143 87.29622766 114.36824864 89.11661911 114.37832069 C91.66572006 114.39069241 94.21409381 114.38388896 96.76318359 114.37231445 C97.88556679 114.38378006 97.88556679 114.38378006 99.03062439 114.39547729 C103.75993821 114.3481444 107.05455029 113.64126953 111 111 C114.41406831 106.97526129 114.42925585 102.97228837 114.38818359 97.90844727 C114.39344055 97.10780853 114.39869751 96.3071698 114.40411377 95.48226929 C114.41728537 92.84344806 114.40858506 90.20523331 114.3984375 87.56640625 C114.40045925 85.72704452 114.40337154 83.88768357 114.40713501 82.04832458 C114.41155468 78.19579426 114.40513954 74.34347281 114.39111328 70.4909668 C114.37403365 65.5602404 114.38385707 60.63000436 114.40183067 55.699296 C114.41268842 51.90138579 114.40921282 48.10359117 114.4014473 44.30567741 C114.39945017 42.48805622 114.4018874 40.67042444 114.40888596 38.85281563 C114.41653191 36.30857817 114.40485208 33.76512644 114.38818359 31.22094727 C114.39425629 30.47426285 114.40032898 29.72757843 114.40658569 28.95826721 C114.34947172 24.23630112 113.63535729 20.94026325 111 17 C106.94322852 13.5442729 102.83443841 13.56056553 97.72485352 13.58007812 C96.4946347 13.56737381 96.4946347 13.56737381 95.23956299 13.55441284 C92.53585182 13.53106618 89.83271048 13.53002008 87.12890625 13.53125 C85.24470289 13.52414723 83.3605017 13.51644806 81.4763031 13.50817871 C77.52963242 13.49473943 73.58316176 13.49316275 69.63647461 13.49902344 C64.58446717 13.50492033 59.53342047 13.47432595 54.48159885 13.43390656 C50.59102732 13.40802978 46.70068716 13.40515209 42.81004143 13.40879822 C40.94773887 13.40710708 39.08542562 13.39746517 37.22320747 13.37965393 C34.61633508 13.35746299 32.011408 13.36716547 29.40454102 13.38476562 C28.63915512 13.37150238 27.87376923 13.35823914 27.08518982 13.34457397 C21.27626045 13.43548271 18.87736019 14.95173926 15 19 Z " fill="#EFF0F0" transform="translate(0,0)"/>
<path d="M0 0 C3.18259851 1.40509099 5.31348466 3.06921342 7.75878906 5.53173828 C8.47923401 6.25233429 9.19967896 6.9729303 9.94195557 7.71536255 C10.70876648 8.49249603 11.47557739 9.26962952 12.265625 10.0703125 C13.05902283 10.86654022 13.85242065 11.66276794 14.66986084 12.48312378 C17.20130703 15.02575948 19.72570803 17.57526348 22.25 20.125 C23.96568617 21.85071753 25.68182662 23.57598355 27.3984375 25.30078125 C31.60424248 29.52863032 35.80428507 33.76213869 40 38 C38.59490901 41.18259851 36.93078658 43.31348466 34.46826172 45.75878906 C33.74766571 46.47923401 33.0270697 47.19967896 32.28463745 47.94195557 C31.50750397 48.70876648 30.73037048 49.47557739 29.9296875 50.265625 C29.13345978 51.05902283 28.33723206 51.85242065 27.51687622 52.66986084 C24.97424052 55.20130703 22.42473652 57.72570803 19.875 60.25 C18.14928247 61.96568617 16.42401645 63.68182662 14.69921875 65.3984375 C10.47136968 69.60424248 6.23786131 73.80428507 2 78 C-1.18259851 76.59490901 -3.31348466 74.93078658 -5.75878906 72.46826172 C-6.47923401 71.74766571 -7.19967896 71.0270697 -7.94195557 70.28463745 C-8.70876648 69.50750397 -9.47557739 68.73037048 -10.265625 67.9296875 C-11.05902283 67.13345978 -11.85242065 66.33723206 -12.66986084 65.51687622 C-15.20130703 62.97424052 -17.72570803 60.42473652 -20.25 57.875 C-21.96568617 56.14928247 -23.68182662 54.42401645 -25.3984375 52.69921875 C-29.60424248 48.47136968 -33.80428507 44.23786131 -38 40 C-36.59490901 36.81740149 -34.93078658 34.68651534 -32.46826172 32.24121094 C-31.74766571 31.52076599 -31.0270697 30.80032104 -30.28463745 30.05804443 C-29.11893723 28.90782806 -29.11893723 28.90782806 -27.9296875 27.734375 C-27.13345978 26.94097717 -26.33723206 26.14757935 -25.51687622 25.33013916 C-22.97424052 22.79869297 -20.42473652 20.27429197 -17.875 17.75 C-16.14928247 16.03431383 -14.42401645 14.31817338 -12.69921875 12.6015625 C-8.47136968 8.39575752 -4.23786131 4.19571493 0 0 Z " fill="#AFD8E6" transform="translate(63,25)"/>
<path d="M0 0 C1.22999977 -0.01029488 1.22999977 -0.01029488 2.48484802 -0.02079773 C5.19401394 -0.03909018 7.902602 -0.03522428 10.61181641 -0.02954102 C12.49744861 -0.03410218 14.38307915 -0.03940756 16.26870728 -0.04542542 C20.2213618 -0.05436172 24.17381436 -0.05192811 28.12646484 -0.04199219 C33.1862294 -0.03051143 38.24529514 -0.05069762 43.30496788 -0.07990932 C47.19982315 -0.09827787 51.09451124 -0.09797739 54.98939896 -0.0922718 C56.85447799 -0.09211862 58.71956837 -0.09816072 60.58460617 -0.11056328 C63.19616924 -0.1254811 65.80644529 -0.11479037 68.41796875 -0.09765625 C69.18492569 -0.10732422 69.95188263 -0.11699219 70.74208069 -0.12695312 C75.90753478 -0.05617164 78.95213905 0.9927369 82.83837891 4.40405273 C85.31483608 8.50022463 85.13454956 12.83395077 85.12890625 17.49560547 C85.13562347 18.2962442 85.1423407 19.09688293 85.14926147 19.92178345 C85.16821244 22.5604681 85.17216396 25.19889808 85.17431641 27.83764648 C85.18074553 29.67700809 85.18747398 31.51636868 85.19448853 33.35572815 C85.20645343 37.20820487 85.21017008 41.06059195 85.20898438 44.91308594 C85.20878104 49.84388015 85.23610134 54.77409894 85.27052879 59.70475674 C85.29278898 63.50265634 85.29682221 67.30041716 85.29576492 71.09837532 C85.29812151 72.91601612 85.30694829 74.73366071 85.32242966 76.55123711 C85.34207542 79.09560125 85.33625807 81.63872032 85.32421875 84.18310547 C85.33545776 84.92978989 85.34669678 85.6764743 85.35827637 86.44578552 C85.2969418 91.55930677 84.20267606 94.55466533 80.83837891 98.40405273 C76.74220701 100.8805099 72.40848087 100.70022339 67.74682617 100.69458008 C66.94618744 100.7012973 66.14554871 100.70801453 65.32064819 100.7149353 C62.68196354 100.73388627 60.04353356 100.73783779 57.40478516 100.73999023 C55.56542355 100.74641936 53.72606296 100.75314781 51.88670349 100.76016235 C48.03422677 100.77212726 44.18183969 100.7758439 40.3293457 100.7746582 C35.39855149 100.77445487 30.4683327 100.80177516 25.5376749 100.83620262 C21.7397753 100.85846281 17.94201448 100.86249604 14.14405632 100.86143875 C12.32641552 100.86379533 10.50877093 100.87262212 8.69119453 100.88810349 C6.14683039 100.90774924 3.60371132 100.9019319 1.05932617 100.88989258 C0.31264175 100.90113159 -0.43404266 100.91237061 -1.20335388 100.9239502 C-6.31940114 100.86258533 -9.2724211 99.71005568 -13.16162109 96.40405273 C-15.91784372 92.86265651 -15.45023619 88.61810325 -15.4362793 84.31835938 C-15.44139023 83.50650681 -15.44650116 82.69465424 -15.45176697 81.85820007 C-15.46565731 79.17679454 -15.46470665 76.4956462 -15.46240234 73.81420898 C-15.46628953 71.94860234 -15.47062425 70.08299658 -15.47538757 68.21739197 C-15.48284855 64.30765921 -15.48255936 60.39801675 -15.47729492 56.48828125 C-15.47149995 51.48010417 -15.48843254 46.47229688 -15.5116396 41.46418095 C-15.52637715 37.61142315 -15.52724861 33.75875442 -15.52412987 29.90597343 C-15.52464305 28.059608 -15.52988026 26.21323758 -15.53994179 24.36689949 C-15.55228955 21.7840693 -15.54552472 19.20195944 -15.53393555 16.61914062 C-15.54157928 15.85793915 -15.54922302 15.09673767 -15.55709839 14.31246948 C-15.50150642 8.70215065 -14.27606356 5.65696396 -10.48422241 1.61680603 C-7.07291147 -0.16442029 -3.75833677 -0.0219437 0 0 Z M-12.16162109 6.40405273 C-13.43631517 8.95344088 -13.28178293 10.73446271 -13.27514648 13.58813477 C-13.27507095 14.66910431 -13.27499542 15.75007385 -13.2749176 16.86380005 C-13.26975632 18.03466156 -13.26459503 19.20552307 -13.25927734 20.41186523 C-13.25715492 22.20550003 -13.25715492 22.20550003 -13.25498962 24.03536987 C-13.24937773 27.8666226 -13.23682317 31.69781757 -13.22412109 35.52905273 C-13.21910763 38.12149981 -13.21454446 40.7139478 -13.21044922 43.30639648 C-13.19940443 49.67230172 -13.18265468 56.0381731 -13.16162109 62.40405273 C-12.69111328 61.95932617 -12.22060547 61.51459961 -11.73583984 61.05639648 C-11.11322266 60.49049805 -10.49060547 59.92459961 -9.84912109 59.34155273 C-9.23423828 58.77307617 -8.61935547 58.20459961 -7.98583984 57.61889648 C-7.38384766 57.21799805 -6.78185547 56.81709961 -6.16162109 56.40405273 C-5.17162109 56.73405273 -4.18162109 57.06405273 -3.16162109 57.40405273 C-4.60134083 60.8395869 -6.38849591 62.56588062 -9.22802734 64.92749023 C-12.56864895 68.19323714 -13.76679402 70.34050975 -14.18896484 75.00561523 C-14.20079207 77.01361624 -14.17005493 79.02227016 -14.09912109 81.02905273 C-14.12167969 82.03967773 -14.14423828 83.05030273 -14.16748047 84.09155273 C-14.10169539 88.86566985 -13.82104722 92.51972458 -10.41162109 96.06030273 C-5.23085191 99.69984424 0.67160275 99.35462622 6.77587891 99.27905273 C7.91734375 99.31901367 9.05880859 99.35897461 10.23486328 99.40014648 C16.51800136 99.39288694 20.10767357 98.88346506 24.65478516 94.34936523 C25.74944414 93.06197963 26.82378519 91.75543706 27.83837891 90.40405273 C30.50504557 91.73738607 33.17171224 93.0707194 35.83837891 94.40405273 C50.02837891 80.21405273 64.21837891 66.02405273 78.83837891 51.40405273 C77.84837891 49.42405273 77.84837891 49.42405273 76.83837891 47.40405273 C76.17171224 46.0707194 75.50504557 44.73738607 74.83837891 43.40405273 C75.40935303 42.98099854 75.98032715 42.55794434 76.56860352 42.12207031 C80.06251616 39.17325843 82.50284843 36.91696815 83.51464844 32.35473633 C83.66057465 28.90386106 83.58682937 25.54026285 83.40087891 22.09155273 C83.37316406 20.91270508 83.34544922 19.73385742 83.31689453 18.51928711 C83.3944006 10.83565363 83.3944006 10.83565363 79.97509766 4.27124023 C75.31228588 1.49561878 70.9954549 1.55621488 65.65087891 1.52905273 C64.61890381 1.52131836 63.58692871 1.51358398 62.52368164 1.50561523 C55.76839837 1.71150687 52.1679182 2.54057045 47.40087891 7.40405273 C45.26944362 10.05494546 45.26944362 10.05494546 43.83837891 12.40405273 C42.84837891 12.07405273 41.85837891 11.74405273 40.83837891 11.40405273 C42.36765321 7.96318555 44.46600819 5.31165342 46.83837891 2.40405273 C39.23961795 2.30261862 31.64103164 2.23257253 24.04174805 2.18432617 C21.45672074 2.16421301 18.87173891 2.13691887 16.28686523 2.10229492 C12.57084936 2.0537662 8.85543513 2.03108038 5.13916016 2.01342773 C3.9837825 1.99278259 2.82840485 1.97213745 1.63801575 1.9508667 C-6.14023215 1.83200167 -6.14023215 1.83200167 -12.16162109 6.40405273 Z " fill="#A9AAAD" transform="translate(29.16162109375,13.595947265625)"/>
<path d="M0 0 C3.56764285 1.51376081 5.83706287 3.60513129 8.546875 6.3515625 C9.81337891 7.62773438 9.81337891 7.62773438 11.10546875 8.9296875 C12.41451172 10.26386719 12.41451172 10.26386719 13.75 11.625 C14.63816406 12.5221875 15.52632812 13.419375 16.44140625 14.34375 C18.63216969 16.55807004 20.81812763 18.77692435 23 21 C21.4922049 24.5367847 19.43339822 26.81150413 16.71875 29.51171875 C15.87699219 30.35154297 15.03523438 31.19136719 14.16796875 32.05664062 C12.84732422 33.35891602 12.84732422 33.35891602 11.5 34.6875 C10.61957031 35.56728516 9.73914063 36.44707031 8.83203125 37.35351562 C2.28080115 43.85959943 2.28080115 43.85959943 0 45 C0 49.29 0 53.58 0 58 C-4.81332402 53.95647147 -9.37257226 49.7758206 -13.80859375 45.32421875 C-14.42017838 44.71359085 -15.031763 44.10296295 -15.66188049 43.47383118 C-16.93947039 42.19691615 -18.21582103 40.91876007 -19.4909668 39.6394043 C-21.45312256 37.67183434 -23.4206352 35.70973268 -25.38867188 33.74804688 C-26.63313376 32.50292517 -27.87728594 31.25749384 -29.12109375 30.01171875 C-29.71160019 29.42323654 -30.30210663 28.83475433 -30.9105072 28.22843933 C-35 24.11498548 -35 24.11498548 -35 23 C-30.38 23 -25.76 23 -21 23 C-20.34 21.68 -19.68 20.36 -19 19 C-17.59942672 17.43810233 -16.14178989 15.92656603 -14.6484375 14.453125 C-13.79765625 13.60878906 -12.946875 12.76445313 -12.0703125 11.89453125 C-10.73613281 10.58548828 -10.73613281 10.58548828 -9.375 9.25 C-8.4778125 8.36183594 -7.580625 7.47367188 -6.65625 6.55859375 C-4.44192996 4.36783031 -2.22307565 2.18187237 0 0 Z " fill="#0C5887" transform="translate(63,42)"/>
<path d="M0 0 C1.03253906 -0.01095703 2.06507812 -0.02191406 3.12890625 -0.03320312 C7.69348669 0.01097023 10.66547717 0.07397364 14.65625 2.41015625 C18.85788925 7.31503597 17.95661807 14.05166248 18.125 20.1875 C18.23134766 21.91419922 18.23134766 21.91419922 18.33984375 23.67578125 C18.44979696 28.75098986 18.48486166 32.19534107 15.45214844 36.40527344 C13.23033315 38.62883065 10.98935892 40.64631175 8.5 42.5625 C1.57189276 36.89675951 -4.64204142 30.53216361 -10.9375 24.1875 C-12.06161467 23.05836045 -13.18596174 21.92945222 -14.31054688 20.80078125 C-17.04305235 18.05734812 -19.77239009 15.31080015 -22.5 12.5625 C-21.05780204 10.84276566 -19.60400732 9.13755335 -18.12304688 7.45092773 C-16.79726601 5.90837133 -15.55675674 4.2928809 -14.34375 2.66015625 C-9.85893004 -0.64801452 -5.4213729 -0.12521273 0 0 Z " fill="#6C6E71" transform="translate(94.5,15.4375)"/>
<path d="M0 0 C6.92810724 5.66574049 13.14204142 12.03033639 19.4375 18.375 C20.56161467 19.50413955 21.68596174 20.63304778 22.81054688 21.76171875 C25.54305235 24.50515188 28.27239009 27.25169985 31 30 C30.06409496 31.1055189 29.12620142 32.20935453 28.1875 33.3125 C27.66542969 33.92738281 27.14335938 34.54226562 26.60546875 35.17578125 C26.07566406 35.77777344 25.54585937 36.37976563 25 37 C24.5575293 37.56066162 24.11505859 38.12132324 23.65917969 38.69897461 C19.88955717 41.65487785 13.8264256 40.55502218 9.25 40.5625 C7.49816406 40.61760742 7.49816406 40.61760742 5.7109375 40.67382812 C-3.94482882 40.72309224 -3.94482882 40.72309224 -8.2578125 37.6640625 C-12.2997752 33.41409457 -12.21503403 28.4130666 -12.125 22.8125 C-12.12177734 21.78761475 -12.11855469 20.76272949 -12.11523438 19.70678711 C-11.85024348 13.84759582 -11.09953617 9.81893478 -7.05029297 5.46166992 C-4.81956872 3.44839738 -2.50213674 1.66132131 0 0 Z " fill="#6C6E71" transform="translate(27,72)"/>
<path d="M0 0 C0.124032 5.01699904 0.21454017 10.03309682 0.2746582 15.05126953 C0.29973045 16.75650589 0.33379764 18.46163554 0.37719727 20.16650391 C0.43817566 22.62429174 0.46628112 25.08065361 0.48828125 27.5390625 C0.51408768 28.29555084 0.5398941 29.05203918 0.56648254 29.83145142 C0.5685966 33.86354822 0.17245372 36.28146688 -2.40551758 39.46630859 C-6.52480797 43.48908037 -9.57009735 43.1341856 -15.0703125 43.09765625 C-16.26465408 43.09553383 -16.26465408 43.09553383 -17.48312378 43.09336853 C-20.0304538 43.08776345 -22.57769647 43.07521014 -25.125 43.0625 C-26.85025915 43.05748565 -28.57551967 43.05292263 -30.30078125 43.04882812 C-34.53388791 43.03779237 -38.76692914 43.02052436 -43 43 C-38.4429043 37.53697293 -33.60996409 32.46362071 -28.57421875 27.44140625 C-27.78602249 26.65225327 -26.99782623 25.86310028 -26.18574524 25.05003357 C-24.53220354 23.39581525 -22.87741391 21.74284351 -21.22143555 20.09106445 C-18.67445048 17.54947814 -16.1328997 15.00254411 -13.59179688 12.45507812 C-11.98209176 10.84603304 -10.37207689 9.23729777 -8.76171875 7.62890625 C-7.99824631 6.86340958 -7.23477386 6.0979129 -6.44816589 5.30921936 C-5.7468605 4.61106613 -5.04555511 3.9129129 -4.32299805 3.19360352 C-3.70377975 2.57518082 -3.08456146 1.95675812 -2.44657898 1.31959534 C-1 0 -1 0 0 0 Z " fill="#6D6E71" transform="translate(112,69)"/>
<path d="M0 0 C3.40353022 1.47122616 5.61255749 3.36942513 8.21777344 5.99072266 C9.03832214 6.81142242 9.85887085 7.63212219 10.70428467 8.47769165 C11.58046448 9.36419403 12.45664429 10.25069641 13.359375 11.1640625 C14.26375305 12.07127045 15.1681311 12.97847839 16.09991455 13.91317749 C18.49796458 16.31884419 20.88994618 18.73045736 23.28070068 21.14337158 C25.72385171 23.60702344 28.17271206 26.06498577 30.62109375 28.5234375 C35.41933788 33.34373573 40.21182732 38.16969843 45 43 C43.52877384 46.40353022 41.63057487 48.61255749 39.00927734 51.21777344 C38.18857758 52.03832214 37.36787781 52.85887085 36.52230835 53.70428467 C35.63580597 54.58046448 34.74930359 55.45664429 33.8359375 56.359375 C32.92872955 57.26375305 32.02152161 58.1681311 31.08682251 59.09991455 C28.68115581 61.49796458 26.26954264 63.88994618 23.85662842 66.28070068 C21.39297656 68.72385171 18.93501423 71.17271206 16.4765625 73.62109375 C11.65626427 78.41933788 6.83030157 83.21182732 2 88 C-1.40353022 86.52877384 -3.61255749 84.63057487 -6.21777344 82.00927734 C-7.03832214 81.18857758 -7.85887085 80.36787781 -8.70428467 79.52230835 C-9.58046448 78.63580597 -10.45664429 77.74930359 -11.359375 76.8359375 C-12.26375305 75.92872955 -13.1681311 75.02152161 -14.09991455 74.08682251 C-16.49796458 71.68115581 -18.88994618 69.26954264 -21.28070068 66.85662842 C-23.72385171 64.39297656 -26.17271206 61.93501423 -28.62109375 59.4765625 C-33.41933788 54.65626427 -38.21182732 49.83030157 -43 45 C-41.52877384 41.59646978 -39.63057487 39.38744251 -37.00927734 36.78222656 C-35.77822769 35.5514035 -35.77822769 35.5514035 -34.52230835 34.29571533 C-33.63580597 33.41953552 -32.74930359 32.54335571 -31.8359375 31.640625 C-30.92872955 30.73624695 -30.02152161 29.8318689 -29.08682251 28.90008545 C-26.68115581 26.50203542 -24.26954264 24.11005382 -21.85662842 21.71929932 C-19.39297656 19.27614829 -16.93501423 16.82728794 -14.4765625 14.37890625 C-9.65626427 9.58066212 -4.83030157 4.78817268 0 0 Z M-1.68313599 6.44262695 C-2.68907303 7.45522583 -2.68907303 7.45522583 -3.71533203 8.48828125 C-4.47596954 9.24906982 -5.23660706 10.0098584 -6.02029419 10.79370117 C-7.25161575 12.04050659 -7.25161575 12.04050659 -8.5078125 13.3125 C-9.34843231 14.15594971 -10.18905212 14.99939941 -11.05514526 15.8684082 C-13.74980598 18.57430071 -16.43744576 21.28705079 -19.125 24 C-20.94615773 25.83118364 -22.76776644 27.66191887 -24.58984375 29.4921875 C-29.06514987 33.98959376 -33.53470456 38.49265559 -38 43 C-36.59490901 46.18259851 -34.93078658 48.31348466 -32.46826172 50.75878906 C-31.38736771 51.83945648 -31.38736771 51.83945648 -30.28463745 52.94195557 C-29.50750397 53.70876648 -28.73037048 54.47557739 -27.9296875 55.265625 C-27.13345978 56.05902283 -26.33723206 56.85242065 -25.51687622 57.66986084 C-22.97424052 60.20130703 -20.42473652 62.72570803 -17.875 65.25 C-16.14928247 66.96568617 -14.42401645 68.68182662 -12.69921875 70.3984375 C-8.47136968 74.60424248 -4.23786131 78.80428507 0 83 C3.18259851 81.59490901 5.31348466 79.93078658 7.75878906 77.46826172 C8.47923401 76.74766571 9.19967896 76.0270697 9.94195557 75.28463745 C10.70876648 74.50750397 11.47557739 73.73037048 12.265625 72.9296875 C13.45572174 71.73534592 13.45572174 71.73534592 14.66986084 70.51687622 C17.20130703 67.97424052 19.72570803 65.42473652 22.25 62.875 C23.96568617 61.14928247 25.68182662 59.42401645 27.3984375 57.69921875 C31.60424248 53.47136968 35.80428507 49.23786131 40 45 C38.59779351 41.83199926 36.94085834 39.68824332 34.5 37.24121094 C33.78585938 36.52076599 33.07171875 35.80032104 32.3359375 35.05804443 C31.56507812 34.29123352 30.79421875 33.52442261 30 32.734375 C29.20851563 31.94097717 28.41703125 31.14757935 27.6015625 30.33013916 C25.92954263 28.65675946 24.25499903 26.98589819 22.578125 25.31738281 C20.00287602 22.75286403 17.43848948 20.17783011 14.875 17.6015625 C13.25064116 15.97852473 11.62566231 14.35610719 10 12.734375 C9.22914062 11.95946716 8.45828125 11.18455933 7.6640625 10.38616943 C6.59285156 9.32441498 6.59285156 9.32441498 5.5 8.24121094 C4.8709375 7.61373962 4.241875 6.98626831 3.59375 6.33978271 C1.32481641 4.43240828 0.55598864 4.52345847 -1.68313599 6.44262695 Z " fill="#006995" transform="translate(63,20)"/>
<path d="M0 0 C1.22999977 -0.01029488 1.22999977 -0.01029488 2.48484802 -0.02079773 C5.19401394 -0.03909018 7.902602 -0.03522428 10.61181641 -0.02954102 C12.49744861 -0.03410218 14.38307915 -0.03940756 16.26870728 -0.04542542 C20.2213618 -0.05436172 24.17381436 -0.05192811 28.12646484 -0.04199219 C33.1862294 -0.03051143 38.24529514 -0.05069762 43.30496788 -0.07990932 C47.19982315 -0.09827787 51.09451124 -0.09797739 54.98939896 -0.0922718 C56.85447799 -0.09211862 58.71956837 -0.09816072 60.58460617 -0.11056328 C63.19616924 -0.1254811 65.80644529 -0.11479037 68.41796875 -0.09765625 C69.18492569 -0.10732422 69.95188263 -0.11699219 70.74208069 -0.12695312 C75.9086478 -0.05615638 78.87026521 1.11948626 82.83837891 4.40405273 C84.88213274 7.99032446 85.07733754 11.06142085 85.03369141 15.14233398 C85.02724609 16.2090332 85.02080078 17.27573242 85.01416016 18.37475586 C84.98902344 20.02894531 84.98902344 20.02894531 84.96337891 21.71655273 C84.95435547 22.83868164 84.94533203 23.96081055 84.93603516 25.11694336 C84.91252377 27.87953183 84.87966045 30.64168205 84.83837891 33.40405273 C83.84837891 33.89905273 83.84837891 33.89905273 82.83837891 34.40405273 C82.50837891 25.16405273 82.17837891 15.92405273 81.83837891 6.40405273 C80.51837891 5.74405273 79.19837891 5.08405273 77.83837891 4.40405273 C77.34337891 3.90905273 77.34337891 3.90905273 76.83837891 3.40405273 C62.87785763 1.45033857 62.87785763 1.45033857 50.08837891 5.63452148 C47.68871782 8.10742804 45.67381761 10.49230861 43.83837891 13.40405273 C42.51837891 12.74405273 41.19837891 12.08405273 39.83837891 11.40405273 C41.28697316 8.02399947 43.21168062 5.94532994 45.83837891 3.40405273 C38.38210207 3.2772502 30.92610336 3.18969981 23.46899414 3.12939453 C20.93243011 3.10425434 18.39593848 3.07013737 15.85961914 3.02685547 C12.2130344 2.96618612 8.56740758 2.937837 4.92041016 2.91577148 C3.78690628 2.88996506 2.6534024 2.86415863 1.48554993 2.83757019 C-3.16112699 2.83591581 -6.27369812 2.91518418 -10.38623047 5.17944336 C-13.14150054 10.18378977 -12.77781162 14.86788409 -12.64990234 20.48608398 C-12.64282761 21.65539963 -12.63575287 22.82471527 -12.62846375 24.02946472 C-12.60050603 27.75914853 -12.53775981 31.4873237 -12.47412109 35.21655273 C-12.44904024 37.74712999 -12.42622671 40.27773081 -12.40576172 42.80834961 C-12.35067456 49.00743086 -12.26703231 55.20563401 -12.16162109 61.40405273 C-10.18162109 59.42405273 -8.20162109 57.44405273 -6.16162109 55.40405273 C-4.84162109 56.06405273 -3.52162109 56.72405273 -2.16162109 57.40405273 C-3.60152936 60.84163333 -5.3890954 62.56335218 -8.23193359 64.92358398 C-11.59029064 68.20516555 -12.76271752 70.35003458 -13.15380859 75.04077148 C-13.156437 77.05807509 -13.11657928 79.07583266 -13.03662109 81.09155273 C-13.05080078 82.11055664 -13.06498047 83.12956055 -13.07958984 84.17944336 C-12.99864955 88.93935531 -12.71486048 91.62798081 -9.91162109 95.56030273 C-5.05294124 98.75039629 1.12014953 98.18814468 6.71337891 98.21655273 C8.46134766 98.25425781 8.46134766 98.25425781 10.24462891 98.29272461 C13.10955186 98.35143205 15.97295251 98.38783334 18.83837891 98.40405273 C18.50837891 99.06405273 18.17837891 99.72405273 17.83837891 100.40405273 C13.79695675 100.52067535 9.75597025 100.59144623 5.71337891 100.65405273 C4.57126953 100.68756836 3.42916016 100.72108398 2.25244141 100.75561523 C-8.51270028 100.8807913 -8.51270028 100.8807913 -13.16162109 96.40405273 C-15.73797649 92.6708383 -15.45044696 88.68303477 -15.4362793 84.31835938 C-15.44139023 83.50650681 -15.44650116 82.69465424 -15.45176697 81.85820007 C-15.46565731 79.17679454 -15.46470665 76.4956462 -15.46240234 73.81420898 C-15.46628953 71.94860234 -15.47062425 70.08299658 -15.47538757 68.21739197 C-15.48284855 64.30765921 -15.48255936 60.39801675 -15.47729492 56.48828125 C-15.47149995 51.48010417 -15.48843254 46.47229688 -15.5116396 41.46418095 C-15.52637715 37.61142315 -15.52724861 33.75875442 -15.52412987 29.90597343 C-15.52464305 28.059608 -15.52988026 26.21323758 -15.53994179 24.36689949 C-15.55228955 21.7840693 -15.54552472 19.20195944 -15.53393555 16.61914062 C-15.54157928 15.85793915 -15.54922302 15.09673767 -15.55709839 14.31246948 C-15.50150642 8.70215065 -14.27606356 5.65696396 -10.48422241 1.61680603 C-7.07291147 -0.16442029 -3.75833677 -0.0219437 0 0 Z " fill="#949698" transform="translate(29.16162109375,13.595947265625)"/>
<path d="M0 0 C3.7654902 1.8827451 5.64643414 3.41192649 8.546875 6.3515625 C9.39121094 7.20234375 10.23554687 8.053125 11.10546875 8.9296875 C12.41451172 10.26386719 12.41451172 10.26386719 13.75 11.625 C14.63816406 12.5221875 15.52632812 13.419375 16.44140625 14.34375 C18.63216969 16.55807004 20.81812763 18.77692435 23 21 C21.51854822 24.09893473 19.9930886 26.30373018 17.5625 28.75 C16.96566406 29.36359375 16.36882812 29.9771875 15.75390625 30.609375 C14 32 14 32 11 32 C8.42338502 32.30902676 5.85005608 32.63655646 3.27734375 32.9765625 C2.15005859 32.98816406 2.15005859 32.98816406 1 33 C0.34 32.34 -0.32 31.68 -1 31 C0.65 29.35 2.3 27.7 4 26 C3.649375 25.2575 3.29875 24.515 2.9375 23.75 C1.64280941 19.95224093 2.39883734 18.27305033 4.0625 14.75 C4.371875 14.1725 4.68125 13.595 5 13 C3.906875 13.639375 2.81375 14.27875 1.6875 14.9375 C-1.59421807 16.85699548 -4.10883905 18 -8 18 C-9.33981486 18.3062434 -10.67511887 18.63451555 -12 19 C-12.33 18.01 -12.66 17.02 -13 16 C-13.66 15.67 -14.32 15.34 -15 15 C-10.05 10.05 -5.1 5.1 0 0 Z " fill="#00588A" transform="translate(63,42)"/>
<path d="M0 0 C4.82252355 4.0233739 9.37641174 8.22803238 13.80859375 12.67578125 C14.42017838 13.28640915 15.031763 13.89703705 15.66188049 14.52616882 C16.93947039 15.80308385 18.21582103 17.08123993 19.4909668 18.3605957 C21.45312256 20.32816566 23.4206352 22.29026732 25.38867188 24.25195312 C26.63313376 25.49707483 27.87728594 26.74250616 29.12109375 27.98828125 C29.71160019 28.57676346 30.30210663 29.16524567 30.9105072 29.77156067 C35 33.88501452 35 33.88501452 35 35 C32.93816367 35.08150744 30.87538651 35.1394194 28.8125 35.1875 C27.08966797 35.23970703 27.08966797 35.23970703 25.33203125 35.29296875 C15.97192228 34.46998144 7.40121698 24.07486748 1.58789062 17.33056641 C-1.66845766 12.55118438 -1.2835608 8.22270527 -0.59765625 2.68359375 C-0.40042969 1.79800781 -0.20320313 0.91242187 0 0 Z " fill="#0B95CC" transform="translate(65,28)"/>
<path d="M0 0 C0.87520099 5.84981314 1.3778606 10.8879006 -1.95263672 15.99316406 C-4.6567146 18.86190848 -7.48044885 21.52458052 -10.4375 24.125 C-12.40393792 25.9301298 -14.35491308 27.75132245 -16.30859375 29.5703125 C-17.18314209 30.35164551 -18.05769043 31.13297852 -18.95874023 31.93798828 C-21.21786661 33.91579243 -21.21786661 33.91579243 -22 37 C-26.62 37 -31.24 37 -36 37 C-34.31822612 33.63645225 -33.30132951 32.05215143 -30.75952148 29.51660156 C-30.10221542 28.85621887 -29.44490936 28.19583618 -28.76768494 27.51544189 C-28.05930984 26.81425232 -27.35093475 26.11306274 -26.62109375 25.390625 C-25.53019188 24.30041046 -25.53019188 24.30041046 -24.41725159 23.18817139 C-22.88217714 21.6561141 -21.3446769 20.12648406 -19.80493164 18.59912109 C-17.43771767 16.25021599 -15.07865581 13.89335453 -12.72070312 11.53515625 C-11.22963886 10.04900526 -9.73811816 8.56331205 -8.24609375 7.078125 C-7.53569443 6.3688385 -6.8252951 5.659552 -6.09336853 4.92877197 C-5.43921463 4.28099792 -4.78506073 3.63322388 -4.11108398 2.96582031 C-3.53309555 2.39164368 -2.95510712 1.81746704 -2.35960388 1.22589111 C-1 0 -1 0 0 0 Z " fill="#07B0DA" transform="translate(63,28)"/>
<path d="M0 0 C-4.0233739 4.82252355 -8.22803238 9.37641174 -12.67578125 13.80859375 C-13.28640915 14.42017838 -13.89703705 15.031763 -14.52616882 15.66188049 C-15.80308385 16.93947039 -17.08123993 18.21582103 -18.3605957 19.4909668 C-20.32816566 21.45312256 -22.29026732 23.4206352 -24.25195312 25.38867188 C-25.49707483 26.63313376 -26.74250616 27.87728594 -27.98828125 29.12109375 C-28.57676346 29.71160019 -29.16524567 30.30210663 -29.77156067 30.9105072 C-33.88501452 35 -33.88501452 35 -35 35 C-35.86694895 29.12164877 -36.24582505 24.10789002 -33.14697266 18.86474609 C-30.96557648 16.29601909 -28.75938129 13.93004572 -26.31469727 11.61987305 C-24.81097099 10.18604206 -23.38973778 8.69547316 -21.96289062 7.18554688 C-15.10579547 0.27155363 -9.66791623 -1.42584026 0 0 Z " fill="#004E81" transform="translate(100,65)"/>
<path d="M0 0 C2.0625 0.4375 2.0625 0.4375 4 1 C4 1.66 4 2.32 4 3 C4.66 3 5.32 3 6 3 C6 3.66 6 4.32 6 5 C6.66 5 7.32 5 8 5 C8 5.66 8 6.32 8 7 C9.32 7.66 10.64 8.32 12 9 C12 9.66 12 10.32 12 11 C12.66 11 13.32 11 14 11 C14 11.66 14 12.32 14 13 C14.66 13 15.32 13 16 13 C16 13.66 16 14.32 16 15 C16.66 15 17.32 15 18 15 C18 15.66 18 16.32 18 17 C18.66 17 19.32 17 20 17 C20 17.66 20 18.32 20 19 C20.66 19 21.32 19 22 19 C23.44207941 21.88415883 23.09394887 24.41721528 23.0625 27.625 C23.05347656 28.81351563 23.04445313 30.00203125 23.03515625 31.2265625 C23.02355469 32.14179687 23.01195313 33.05703125 23 34 C16.89638586 28.95411445 11.21834804 23.50367537 5.59033203 17.94042969 C4.52103272 16.88787408 3.44637387 15.84073837 2.36669922 14.79882812 C0.79480641 13.28139982 -0.76026348 11.7484356 -2.3125 10.2109375 C-3.69888672 8.85427979 -3.69888672 8.85427979 -5.11328125 7.47021484 C-7 5 -7 5 -6.79296875 2.67431641 C-6.53128906 2.12179199 -6.26960938 1.56926758 -6 1 C-4.7934375 1.0309375 -4.7934375 1.0309375 -3.5625 1.0625 C-1.06645115 1.29633621 -1.06645115 1.29633621 0 0 Z " fill="#023973" transform="translate(40,66)"/>
<path d="M0 0 C0.99 0.99 1.98 1.98 3 3 C4.0725 2.484375 5.145 1.96875 6.25 1.4375 C8.4088844 0.53146217 9.77006569 0 12.125 0 C14.93520868 1.49877796 16.85613439 3.67747893 19 6 C17.60807296 9.13010458 15.97357774 11.32336692 13.5625 13.75 C12.96566406 14.36359375 12.36882812 14.9771875 11.75390625 15.609375 C10 17 10 17 7 17 C4.42338502 17.30902676 1.85005608 17.63655646 -0.72265625 17.9765625 C-1.47417969 17.98429687 -2.22570312 17.99203125 -3 18 C-3.66 17.34 -4.32 16.68 -5 16 C-3.35 14.35 -1.7 12.7 0 11 C-0.350625 10.2575 -0.70125 9.515 -1.0625 8.75 C-2.0583663 5.82879218 -2.06781058 4.81513699 -1 2 C-0.67 1.34 -0.34 0.68 0 0 Z " fill="#035685" transform="translate(67,57)"/>
<path d="M0 0 C1.98 1.65 3.96 3.3 6 5 C4.52877384 8.40353022 2.63057487 10.61255749 0.00927734 13.21777344 C-0.81142242 14.03832214 -1.63212219 14.85887085 -2.47769165 15.70428467 C-3.36419403 16.58046448 -4.25069641 17.45664429 -5.1640625 18.359375 C-6.07127045 19.26375305 -6.97847839 20.1681311 -7.91317749 21.09991455 C-10.31884419 23.49796458 -12.73045736 25.88994618 -15.14337158 28.28070068 C-17.60702344 30.72385171 -20.06498577 33.17271206 -22.5234375 35.62109375 C-27.34373573 40.41933788 -32.16969843 45.21182732 -37 50 C-40.32635882 48.47427344 -41.95563002 47.06655496 -44 44 C-43.01 43.34 -42.02 42.68 -41 42 C-39.68 42.66 -38.36 43.32 -37 44 C-24.79 31.79 -12.58 19.58 0 7 C-0.66 5.35 -1.32 3.7 -2 2 C-1.34 1.34 -0.68 0.68 0 0 Z " fill="#007AA8" transform="translate(102,58)"/>
<path d="M0 0 C0 3 0 3 -1.5625 4.9375 C-3.24405186 6.85982597 -3.24405186 6.85982597 -2.75 9 C-2.25144687 10.32947501 -1.70940373 11.64346317 -1.125 12.9375 C-1.08375 13.618125 -1.0425 14.29875 -1 15 C-3.4375 17.75 -3.4375 17.75 -6 20 C-1.15507803 21.51403812 2.2591011 20.36602172 7 19 C6.48680477 23.21412236 4.14372913 25.35456091 1.25 28.3125 C0.38890625 29.21613281 -0.4721875 30.11976562 -1.359375 31.05078125 C-4 33 -4 33 -6.828125 32.79296875 C-7.54484375 32.53128906 -8.2615625 32.26960938 -9 32 C-9 31.34 -9 30.68 -9 30 C-9.66 30 -10.32 30 -11 30 C-11 29.34 -11 28.68 -11 28 C-11.66 28 -12.32 28 -13 28 C-13 27.34 -13 26.68 -13 26 C-13.66 26 -14.32 26 -15 26 C-15.33 24.02 -15.66 22.04 -16 20 C-15.2575 20.103125 -14.515 20.20625 -13.75 20.3125 C-10.79309601 20.2556798 -10.79309601 20.2556798 -8.625 17.75 C-6.77620445 15.23302195 -6.77620445 15.23302195 -7.1875 12.9375 C-7.5896875 11.9784375 -7.5896875 11.9784375 -8 11 C-8.33 9.68 -8.66 8.36 -9 7 C-6.03 4.69 -3.06 2.38 0 0 Z " fill="#104F81" transform="translate(69,53)"/>
<path d="M0 0 C-1.35610085 3.12375469 -2.79456016 4.9310969 -5.4375 7.0625 C-7.24099052 8.53100092 -8.96429275 9.96376893 -10.59765625 11.62109375 C-13.3607846 14.33804168 -15.75965297 14.10591062 -19.5078125 14.08789062 C-20.55582031 14.07532227 -20.55582031 14.07532227 -21.625 14.0625 C-22.33140625 14.05798828 -23.0378125 14.05347656 -23.765625 14.04882812 C-25.51045275 14.03703875 -27.255237 14.01910324 -29 14 C-29 9.35655697 -26.27573377 7.07861828 -23.19995117 3.7878418 C-16.62613517 -2.31545779 -8.34113234 -0.90844016 0 0 Z " fill="#F7F7F8" transform="translate(65,114)"/>
<path d="M0 0 C1.94025789 17.17487538 1.94025789 17.17487538 -2.63671875 22.93359375 C-5.51085909 25.96498189 -8.61066271 28.56376186 -12 31 C-12.33 31 -12.66 31 -13 31 C-14.94025789 13.82512462 -14.94025789 13.82512462 -10.36328125 8.06640625 C-2.7153053 0 -2.7153053 0 0 0 Z " fill="#F8F8F8" transform="translate(127,34)"/>
<path d="M0 0 C0.99 0.33 1.98 0.66 3 1 C1.56009174 4.4375806 -0.2274743 6.15929945 -3.0703125 8.51953125 C-6.42866954 11.80111281 -7.60109643 13.94598184 -7.9921875 18.63671875 C-7.99481591 20.65402235 -7.95495819 22.67177992 -7.875 24.6875 C-7.88917969 25.70650391 -7.90335938 26.72550781 -7.91796875 27.77539062 C-7.83702846 32.53530257 -7.55323939 35.22392808 -4.75 39.15625 C0.10867986 42.34634356 6.28177062 41.78409195 11.875 41.8125 C13.0403125 41.83763672 14.205625 41.86277344 15.40625 41.88867188 C18.27117296 41.94737931 21.13457361 41.98378061 24 42 C23.505 42.99 23.505 42.99 23 44 C18.95857785 44.11662261 14.91759135 44.1873935 10.875 44.25 C9.73289062 44.28351563 8.59078125 44.31703125 7.4140625 44.3515625 C-3.35107918 44.47673857 -3.35107918 44.47673857 -8 40 C-11.40470311 34.705115 -10.4513138 28.06143166 -10.5 22 C-10.54125 20.71609375 -10.5825 19.4321875 -10.625 18.109375 C-10.65406837 14.63570515 -10.61476024 11.41971247 -10 8 C-7.1171875 5.265625 -7.1171875 5.265625 -4 4 C-2.63113049 2.70317626 -1.2830709 1.38176866 0 0 Z " fill="#959799" transform="translate(24,70)"/>
<path d="M0 0 C0.09916726 5.44428237 0.17160909 10.88803448 0.21972656 16.33300781 C0.23979339 18.18368696 0.26705345 20.03430309 0.30175781 21.88476562 C0.35049433 24.55093977 0.37301787 27.21627287 0.390625 29.8828125 C0.41127014 30.70492218 0.43191528 31.52703186 0.45318604 32.37405396 C0.45524625 37.69539282 -0.30992473 40.87917971 -4 45 C-8.27470682 47.64803168 -12.92712803 47.25777687 -17.80078125 47.1953125 C-19.0553437 47.19106766 -19.0553437 47.19106766 -20.33525085 47.18673706 C-22.99448226 47.1755832 -25.65337118 47.15048763 -28.3125 47.125 C-30.12043783 47.11496399 -31.92838096 47.10583923 -33.73632812 47.09765625 C-38.15768312 47.07565959 -42.57878358 47.04116294 -47 47 C-46.34 46.01 -45.68 45.02 -45 44 C-42.28949859 43.78244685 -39.80843613 43.74814878 -37.10546875 43.84765625 C-35.49414435 43.87586485 -33.88281608 43.90385266 -32.27148438 43.93164062 C-29.73016023 43.9937199 -27.18918314 44.06245064 -24.64819336 44.13696289 C-22.19648533 44.20350891 -19.74523538 44.24536246 -17.29296875 44.28515625 C-16.15990547 44.33024071 -16.15990547 44.33024071 -15.00395203 44.37623596 C-11.26718199 44.42850051 -9.22431906 44.14364794 -6.04418945 42.10717773 C-2.32864912 38.27714924 -2.86959494 34.7807092 -2.90234375 29.7109375 C-2.9037587 28.89251373 -2.90517365 28.07408997 -2.90663147 27.23086548 C-2.9122371 24.61220675 -2.92479052 21.99363296 -2.9375 19.375 C-2.94251428 17.60156373 -2.94707731 15.82812613 -2.95117188 14.0546875 C-2.96220836 9.70309218 -2.97947675 5.3515605 -3 1 C-1 0 -1 0 0 0 Z " fill="#949698" transform="translate(114,67)"/>
<path d="M0 0 C2.0625 0.4375 2.0625 0.4375 4 1 C4 1.66 4 2.32 4 3 C4.66 3 5.32 3 6 3 C6 3.66 6 4.32 6 5 C6.66 5 7.32 5 8 5 C8 5.66 8 6.32 8 7 C9.32 7.66 10.64 8.32 12 9 C12 9.66 12 10.32 12 11 C12.66 11 13.32 11 14 11 C14 11.66 14 12.32 14 13 C14.66 13 15.32 13 16 13 C16 13.66 16 14.32 16 15 C2.55491329 15 2.55491329 15 -2.25 10.25 C-3.16265625 9.36828125 -4.0753125 8.4865625 -5.015625 7.578125 C-7 5 -7 5 -6.796875 2.671875 C-6.40242188 1.84429687 -6.40242188 1.84429687 -6 1 C-4.7934375 1.0309375 -4.7934375 1.0309375 -3.5625 1.0625 C-1.06645115 1.29633621 -1.06645115 1.29633621 0 0 Z " fill="#02477C" transform="translate(40,66)"/>
<path d="M0 0 C-4.0233739 4.82252355 -8.22803238 9.37641174 -12.67578125 13.80859375 C-13.28640915 14.42017838 -13.89703705 15.031763 -14.52616882 15.66188049 C-15.80308385 16.93947039 -17.08123993 18.21582103 -18.3605957 19.4909668 C-20.32816566 21.45312256 -22.29026732 23.4206352 -24.25195312 25.38867188 C-25.49707483 26.63313376 -26.74250616 27.87728594 -27.98828125 29.12109375 C-28.57676346 29.71160019 -29.16524567 30.30210663 -29.77156067 30.9105072 C-33.88501452 35 -33.88501452 35 -35 35 C-35.29296875 32.8125 -35.29296875 32.8125 -35 30 C-32.98828125 27.5 -32.98828125 27.5 -30.3125 25 C-29.44238281 24.175 -28.57226562 23.35 -27.67578125 22.5 C-26.79277344 21.675 -25.90976563 20.85 -25 20 C-22.07950703 17.12777964 -19.23071729 14.19643506 -16.40625 11.23046875 C-15.10439668 9.88259031 -13.80230883 8.53493834 -12.5 7.1875 C-11.84902344 6.49462891 -11.19804688 5.80175781 -10.52734375 5.08789062 C-9.88925781 4.43369141 -9.25117187 3.77949219 -8.59375 3.10546875 C-8.02333984 2.50887451 -7.45292969 1.91228027 -6.86523438 1.29760742 C-4.46365304 -0.37312619 -2.86255299 -0.244177 0 0 Z " fill="#008AB3" transform="translate(100,65)"/>
<path d="M0 0 C4.29067546 1.65236651 7.1429553 4.8905207 10.296875 8.1015625 C10.89050842 8.69802582 11.48414185 9.29448914 12.09576416 9.9090271 C13.98526627 11.8096981 15.86768392 13.71721474 17.75 15.625 C19.03209065 16.91712468 20.31463761 18.20879676 21.59765625 19.5 C24.73708432 22.66144479 27.87017801 25.8290461 31 29 C30.67 29.99 30.34 30.98 30 32 C25.70932454 30.34763349 22.8570447 27.1094793 19.703125 23.8984375 C19.10949158 23.30197418 18.51585815 22.70551086 17.90423584 22.0909729 C16.01473373 20.1903019 14.13231608 18.28278526 12.25 16.375 C10.96790935 15.08287532 9.68536239 13.79120324 8.40234375 12.5 C5.26291568 9.33855521 2.12982199 6.1709539 -1 3 C-0.67 2.01 -0.34 1.02 0 0 Z " fill="#004178" transform="translate(29,70)"/>
<path d="M0 0 C1 3 1 3 0.3515625 4.890625 C-1.34879601 7.54436372 -3.36566632 9.55521871 -5.625 11.75 C-6.44226562 12.54921875 -7.25953125 13.3484375 -8.1015625 14.171875 C-8.72804688 14.77515625 -9.35453125 15.3784375 -10 16 C-8.79618552 18.49361571 -7.54571278 20.68143083 -6 23 C-6.99 23.66 -7.98 24.32 -9 25 C-11.31 22.69 -13.62 20.38 -16 18 C-14.31353217 14.62706435 -13.30850283 13.06653006 -10.7421875 10.546875 C-10.11699219 9.928125 -9.49179687 9.309375 -8.84765625 8.671875 C-8.19667969 8.03765625 -7.54570312 7.4034375 -6.875 6.75 C-6.21628906 6.1003125 -5.55757812 5.450625 -4.87890625 4.78125 C-3.25703357 3.18288273 -1.6306719 1.58938103 0 0 Z " fill="#005A8B" transform="translate(36,47)"/>
<path d="M0 0 C3.37470504 -0.11689626 6.7488843 -0.18747934 10.125 -0.25 C11.07632813 -0.28351562 12.02765625 -0.31703125 13.0078125 -0.3515625 C18.81391563 -0.43220282 22.56050234 -0.17000739 27 4 C28.84035733 7.68662333 29.2391045 10.64372962 29.1953125 14.73828125 C29.18886719 15.80498047 29.18242188 16.87167969 29.17578125 17.97070312 C29.15902344 19.07349609 29.14226562 20.17628906 29.125 21.3125 C29.11597656 22.43462891 29.10695313 23.55675781 29.09765625 24.71289062 C29.07414486 27.47547909 29.04128155 30.23762932 29 33 C28.01 33.495 28.01 33.495 27 34 C26.505 20.14 26.505 20.14 26 6 C24.68 5.34 23.36 4.68 22 4 C21.67 3.67 21.34 3.34 21 3 C19.36743242 2.84285346 17.72864662 2.74914586 16.08984375 2.68359375 C15.10048828 2.64169922 14.11113281 2.59980469 13.09179688 2.55664062 C12.05087891 2.51732422 11.00996094 2.47800781 9.9375 2.4375 C8.37032227 2.37272461 8.37032227 2.37272461 6.77148438 2.30664062 C4.18113116 2.20018775 1.59067814 2.0981724 -1 2 C-0.67 1.34 -0.34 0.68 0 0 Z " fill="#949698" transform="translate(85,14)"/>
<path d="M0 0 C0.109375 2.38671875 0.109375 2.38671875 0 5 C-1.75 6.8125 -1.75 6.8125 -4 8 C-5.32 8 -6.64 8 -8 8 C-9.7634375 8.309375 -9.7634375 8.309375 -11.5625 8.625 C-15 9 -15 9 -18 7 C-13.45575908 -0.81290543 -8.5612432 -0.87274809 0 0 Z " fill="#024B7F" transform="translate(80,66)"/>
<path d="M0 0 C1.98 1.65 3.96 3.3 6 5 C3.90308431 9.64080887 0.67171494 12.73327953 -2.875 16.3125 C-3.81279297 17.29959961 -3.81279297 17.29959961 -4.76953125 18.30664062 C-5.37925781 18.92345703 -5.98898438 19.54027344 -6.6171875 20.17578125 C-7.17003418 20.74208252 -7.72288086 21.30838379 -8.29248047 21.8918457 C-10 23 -10 23 -12.21142578 22.67651367 C-12.80165527 22.45326416 -13.39188477 22.23001465 -14 22 C-9.59156563 16.70987876 -4.92440206 11.81191572 0 7 C-0.66 5.35 -1.32 3.7 -2 2 C-1.34 1.34 -0.68 0.68 0 0 Z " fill="#008BB4" transform="translate(102,58)"/>
<path d="M0 0 C0.33 0.99 0.66 1.98 1 3 C-2.04390024 6.16737348 -5.10380976 9.31809034 -8.1796875 12.4543457 C-9.22397145 13.52379507 -10.26372669 14.59768596 -11.29882812 15.67602539 C-12.78651929 17.22427869 -14.28970227 18.75589136 -15.796875 20.28515625 C-16.69760742 21.21207275 -17.59833984 22.13898926 -18.52636719 23.09399414 C-21 25 -21 25 -23.32519531 24.79467773 C-23.87788086 24.53243408 -24.43056641 24.27019043 -25 24 C-21.88307091 20.82530062 -18.75516454 17.66164608 -15.625 14.5 C-14.73554687 13.59378906 -13.84609375 12.68757813 -12.9296875 11.75390625 C-12.07890625 10.89667969 -11.228125 10.03945313 -10.3515625 9.15625 C-9.56604004 8.36025391 -8.78051758 7.56425781 -7.97119141 6.74414062 C-6 5 -6 5 -4 5 C-4 4.34 -4 3.68 -4 3 C-3.34 3 -2.68 3 -2 3 C-2 2.34 -2 1.68 -2 1 C-1.34 0.67 -0.68 0.34 0 0 Z " fill="#008CC8" transform="translate(62,38)"/>
<path d="M0 0 C-1.42319214 4.5135522 -3.69179266 7.03879143 -7.0625 10.3125 C-7.96097656 11.19550781 -8.85945313 12.07851562 -9.78515625 12.98828125 C-12 15 -12 15 -13 15 C-13.82528834 8.27979496 -13.82528834 8.27979496 -11.65234375 4.91015625 C-8.02422698 1.01092746 -5.56672801 -0.95041698 0 0 Z " fill="#003471" transform="translate(78,80)"/>
<path d="M0 0 C3.63 0 7.26 0 11 0 C11 4.29 11 8.58 11 13 C2.20588235 5.55882353 2.20588235 5.55882353 0 3 C0 2.01 0 1.02 0 0 Z " fill="#002D6C" transform="translate(52,87)"/>
<path d="M0 0 C0 3 0 3 -1.5625 4.9375 C-3.24405186 6.85982597 -3.24405186 6.85982597 -2.75 9 C-2.5025 9.66 -2.255 10.32 -2 11 C-1.67 12.32 -1.34 13.64 -1 15 C-3.97 17.31 -6.94 19.62 -10 22 C-10.66 21.67 -11.32 21.34 -12 21 C-10.7315625 19.63875 -10.7315625 19.63875 -9.4375 18.25 C-7.34251972 15.8959098 -7.34251972 15.8959098 -7.125 12.875 C-7.41375 12.25625 -7.7025 11.6375 -8 11 C-8.33 9.68 -8.66 8.36 -9 7 C-6.03 4.69 -3.06 2.38 0 0 Z " fill="#E4AC06" transform="translate(69,53)"/>
<path d="M0 0 C4.2742558 1.5830577 6.26531794 4.50568404 9 8 C8.01 8.66 7.02 9.32 6 10 C4.68 8.68 3.36 7.36 2 6 C-1.21524305 7.40844718 -3.32183868 9.10344786 -5.75 11.625 C-6.36359375 12.25664063 -6.9771875 12.88828125 -7.609375 13.5390625 C-8.06828125 14.02117188 -8.5271875 14.50328125 -9 15 C-9.66 14.01 -10.32 13.02 -11 12 C-10.37351563 11.38511719 -9.74703125 10.77023438 -9.1015625 10.13671875 C-8.28429688 9.32847656 -7.46703125 8.52023438 -6.625 7.6875 C-5.40683594 6.48673828 -5.40683594 6.48673828 -4.1640625 5.26171875 C-1.87395158 2.99990063 -1.87395158 2.99990063 0 0 Z " fill="#00749E" transform="translate(63,20)"/>
<path d="M0 0 C0 1.98 0 3.96 0 6 C-0.61875 6.2475 -1.2375 6.495 -1.875 6.75 C-4.35068687 8.20628639 -4.95125002 9.37812506 -6 12 C-6.66 12 -7.32 12 -8 12 C-8.268125 12.61875 -8.53625 13.2375 -8.8125 13.875 C-10 16 -10 16 -13 18 C-13.41774163 15.07141128 -13.61233536 12.89464057 -11.89111328 10.37988281 C-10.3423201 8.71619399 -8.7357185 7.16337342 -7.0625 5.625 C-6.21655273 4.80708984 -6.21655273 4.80708984 -5.35351562 3.97265625 C-1.19666353 0 -1.19666353 0 0 0 Z " fill="#F9F9F9" transform="translate(14,80)"/>
<path d="M0 0 C4.0084034 2.0042017 5.41409657 3.49055963 8 7 C5 8 5 8 2 7 C1.34 7.66 0.68 8.32 0 9 C-0.66 9 -1.32 9 -2 9 C-2 8.01 -2 7.02 -2 6 C-3.27200971 7.10281127 -4.54255853 8.20730769 -5.8125 9.3125 C-6.52019531 9.92738281 -7.22789063 10.54226562 -7.95703125 11.17578125 C-9.70136739 12.73334335 -11.36778041 14.32658875 -13 16 C-13.66 15.67 -14.32 15.34 -15 15 C-10.05 10.05 -5.1 5.1 0 0 Z " fill="#006896" transform="translate(63,42)"/>
<path d="M0 0 C0.94875 0.04125 1.8975 0.0825 2.875 0.125 C1.885 1.61 1.885 1.61 0.875 3.125 C0.215 3.125 -0.445 3.125 -1.125 3.125 C-1.785 4.445 -2.445 5.765 -3.125 7.125 C-3.785 7.125 -4.445 7.125 -5.125 7.125 C-5.434375 7.764375 -5.74375 8.40375 -6.0625 9.0625 C-7.125 11.125 -7.125 11.125 -8.125 12.125 C-10.45797433 12.16592937 -12.79205225 12.16741723 -15.125 12.125 C-14.465 11.795 -13.805 11.465 -13.125 11.125 C-13.125 10.465 -13.125 9.805 -13.125 9.125 C-11.4453125 7.46875 -11.4453125 7.46875 -9.25 5.625 C-2.72916296 0.10916652 -2.72916296 0.10916652 0 0 Z " fill="#F8F8F8" transform="translate(95.125,0.875)"/>
<path d="M0 0 C0.99 0.33 1.98 0.66 3 1 C1.41379873 4.87939509 -1.09920987 7.33361087 -4.0625 10.25 C-4.96097656 11.14203125 -5.85945313 12.0340625 -6.78515625 12.953125 C-9 15 -9 15 -10 15 C-10.375 11.75 -10.375 11.75 -10 8 C-7.25 5.8125 -7.25 5.8125 -4 4 C-2.63113049 2.70317626 -1.2830709 1.38176866 0 0 Z " fill="#ACADB0" transform="translate(24,70)"/>
<path d="M0 0 C4.54074179 1.42358391 7.03973147 3.72132073 10.3125 7.125 C11.19550781 8.03507812 12.07851563 8.94515625 12.98828125 9.8828125 C13.65214844 10.58148438 14.31601562 11.28015625 15 12 C14.67 12.99 14.34 13.98 14 15 C10.16752664 13.41507527 7.66913709 10.96883386 4.75 8.0625 C3.85796875 7.18722656 2.9659375 6.31195313 2.046875 5.41015625 C0 3 0 3 0 0 Z " fill="#002A6A" transform="translate(45,87)"/>
<path d="M0 0 C2.31 0 4.62 0 7 0 C3.19524578 4.56030824 -0.74969621 8.85089392 -5 13 C-5.99 12.67 -6.98 12.34 -8 12 C-6.43909056 8.16867684 -3.8924866 5.8924866 -1 3 C-0.67 2.01 -0.34 1.02 0 0 Z " fill="#ADADB0" transform="translate(78,14)"/>
<path d="M0 0 C1.5625 1.25 1.5625 1.25 3 3 C3 4.9375 3 4.9375 2 7 C-0.5625 9.25 -0.5625 9.25 -3 11 C-5.475 10.01 -5.475 10.01 -8 9 C-7.04270084 7.87411986 -6.08412105 6.7493285 -5.125 5.625 C-4.59132813 4.99851562 -4.05765625 4.37203125 -3.5078125 3.7265625 C-2.38567993 2.44163349 -1.20628025 1.20628025 0 0 Z " fill="#00437A" transform="translate(81,71)"/>
<path d="M0 0 C2 1 2 1 2 1 Z M-2 1 C-1.34 1.33 -0.68 1.66 0 2 C-0.99 2.66 -1.98 3.32 -3 4 C-2.67 3.01 -2.34 2.02 -2 1 Z M-6 6 C-5.34 7.32 -4.68 8.64 -4 10 C-5.47613985 11.50297876 -6.95599157 13.00231285 -8.4375 14.5 C-9.26121094 15.3353125 -10.08492188 16.170625 -10.93359375 17.03125 C-13 19 -13 19 -14 19 C-14.36795695 15.7171341 -14.3231932 14.41336988 -12.25 11.76171875 C-11.13625 10.73498047 -11.13625 10.73498047 -10 9.6875 C-9.2575 8.99011719 -8.515 8.29273437 -7.75 7.57421875 C-7.1725 7.05472656 -6.595 6.53523438 -6 6 Z " fill="#006BA3" transform="translate(79,81)"/>
<path d="M0 0 C0.99 0.33 1.98 0.66 3 1 C1.55746343 4.36591866 -0.33264727 6.51047079 -3 9 C-6.36720387 7.60667426 -7.9859524 6.0210714 -10 3 C-9.01 2.34 -8.02 1.68 -7 1 C-5.68 1.66 -4.36 2.32 -3 3 C-2.01 2.01 -1.02 1.02 0 0 Z " fill="#005B94" transform="translate(68,99)"/>
<path d="M0 0 C-0.15404113 5.08335725 -3.02068432 7.35754718 -6.50390625 10.64453125 C-6.99761719 11.09183594 -7.49132812 11.53914063 -8 12 C-8.99 11.01 -9.98 10.02 -11 9 C-9.54782324 7.49403892 -8.08807139 5.99537896 -6.625 4.5 C-5.40683594 3.24703125 -5.40683594 3.24703125 -4.1640625 1.96875 C-2 0 -2 0 0 0 Z " fill="#0067A3" transform="translate(80,89)"/>
<path d="M0 0 C0.99 0.33 1.98 0.66 3 1 C2.34 1.433125 1.68 1.86625 1 2.3125 C0.34 2.869375 -0.32 3.42625 -1 4 C-1 4.99 -1 5.98 -1 7 C-2.04800781 7.07347656 -2.04800781 7.07347656 -3.1171875 7.1484375 C-4.02726562 7.22320312 -4.93734375 7.29796875 -5.875 7.375 C-7.23238281 7.47941406 -7.23238281 7.47941406 -8.6171875 7.5859375 C-11.17941903 7.79568132 -11.17941903 7.79568132 -13 10 C-14.32 8.35 -15.64 6.7 -17 5 C-12.38 5 -7.76 5 -3 5 C-2.34 3.68 -1.68 2.36 -1 1 C-0.67 0.67 -0.34 0.34 0 0 Z " fill="#0C6C99" transform="translate(45,60)"/>
<path d="M0 0 C4.29238623 1.65091778 6.8793915 4.73754566 10 8 C9.67 8.99 9.34 9.98 9 11 C4.70761377 9.34908222 2.1206085 6.26245434 -1 3 C-0.67 2.01 -0.34 1.02 0 0 Z " fill="#005C8D" transform="translate(92,49)"/>
<path d="M0 0 C-1.47721422 3.45201639 -3.43794001 5.64961936 -6.125 8.25 C-6.84945312 8.95640625 -7.57390625 9.6628125 -8.3203125 10.390625 C-8.87460938 10.92171875 -9.42890625 11.4528125 -10 12 C-10.66 11.67 -11.32 11.34 -12 11 C-10.65864082 8.11288406 -9.15056005 5.70586037 -7.125 3.25 C-6.63257812 2.63640625 -6.14015625 2.0228125 -5.6328125 1.390625 C-4 0 -4 0 0 0 Z " fill="#007DAA" transform="translate(86,78)"/>
<path d="M0 0 C3.81684226 1.55500981 6.19195732 4.03595495 9 7 C8.67 7.99 8.34 8.98 8 10 C4.18315774 8.44499019 1.80804268 5.96404505 -1 3 C-0.67 2.01 -0.34 1.02 0 0 Z " fill="#006F99" transform="translate(71,28)"/>
<path d="M0 0 C2.70931419 0.15481795 4.46584039 0.48172081 6.4453125 2.40234375 C7.67679642 3.89771708 8.8429837 5.4462924 10 7 C8.203125 7.67578125 8.203125 7.67578125 6 8 C4.296875 6.85546875 4.296875 6.85546875 2.75 5.1875 C2.22921875 4.64480469 1.7084375 4.10210937 1.171875 3.54296875 C0 2 0 2 0 0 Z " fill="#003872" transform="translate(38,81)"/>
<path d="M0 0 C1.14926266 0.95421808 2.29430541 1.91352045 3.4375 2.875 C4.07558594 3.40867188 4.71367188 3.94234375 5.37109375 4.4921875 C7 6 7 6 8 8 C5.39417629 8.93065133 4.35801776 9.14917407 1.75 8.0625 C1.1725 7.711875 0.595 7.36125 0 7 C0 4.69 0 2.38 0 0 Z " fill="#006092" transform="translate(71,49)"/>
<path d="M0 0 C2.86697492 1.28519565 4.97607712 2.57129254 7 5 C7 5.66 7 6.32 7 7 C4.625 7.125 4.625 7.125 2 7 C0 5 0 5 -0.125 2.375 C-0.08375 1.59125 -0.0425 0.8075 0 0 Z " fill="#BFC0C4" transform="translate(114,116)"/>
<path d="M0 0 C0.78375 0.04125 1.5675 0.0825 2.375 0.125 C1.08980435 2.99197492 -0.19629254 5.10107712 -2.625 7.125 C-3.285 7.125 -3.945 7.125 -4.625 7.125 C-4.75 4.75 -4.75 4.75 -4.625 2.125 C-2.625 0.125 -2.625 0.125 0 0 Z " fill="#BFC0C3" transform="translate(118.625,4.875)"/>
<path d="M0 0 C2.375 -0.125 2.375 -0.125 5 0 C7 2 7 2 7.125 4.625 C7.08375 5.40875 7.0425 6.1925 7 7 C4.13302508 5.71480435 2.02392288 4.42870746 0 2 C0 1.34 0 0.68 0 0 Z " fill="#BFC0C4" transform="translate(7,5)"/>
<path d="M0 0 C-0.33 1.98 -0.66 3.96 -1 6 C-2.98 6.33 -4.96 6.66 -7 7 C-3.86206897 0 -3.86206897 0 0 0 Z " fill="#BDBEC2" transform="translate(14,116)"/>
<path d="M0 0 C1.99954746 -0.04254356 4.00041636 -0.04080783 6 0 C7 1 7 1 7.0625 4.0625 C7.041875 5.031875 7.02125 6.00125 7 7 C5.83040013 6.02433888 4.66438823 5.044375 3.5 4.0625 C2.8503125 3.51722656 2.200625 2.97195312 1.53125 2.41015625 C1.0259375 1.94480469 0.520625 1.47945313 0 1 C0 0.67 0 0.34 0 0 Z " fill="#BDBEC2" transform="translate(116,114)"/>
<path d="M0 0 C1.4540625 0.0309375 1.4540625 0.0309375 2.9375 0.0625 C1.96183888 1.23209987 0.981875 2.39811177 0 3.5625 C-0.54527344 4.2121875 -1.09054688 4.861875 -1.65234375 5.53125 C-2.11769531 6.0365625 -2.58304687 6.541875 -3.0625 7.0625 C-3.3925 7.0625 -3.7225 7.0625 -4.0625 7.0625 C-4.10504356 5.06295254 -4.10330783 3.06208364 -4.0625 1.0625 C-3.0625 0.0625 -3.0625 0.0625 0 0 Z " fill="#BDBEC2" transform="translate(9.0625,113.9375)"/>
<path d="M0 0 C2.31 0.66 4.62 1.32 7 2 C6.34 3.32 5.68 4.64 5 6 C3.35 5.67 1.7 5.34 0 5 C0 3.35 0 1.7 0 0 Z " fill="#1C5487" transform="translate(60,80)"/>
<path d="M0 0 C1.67542976 0.28604898 3.34385343 0.61781233 5 1 C5 2.65 5 4.3 5 6 C3.68 6.33 2.36 6.66 1 7 C0.34 5.02 -0.32 3.04 -1 1 C-0.67 0.67 -0.34 0.34 0 0 Z " fill="#065F86" transform="translate(66,48)"/>
<path d="M0 0 C0.99 0.33 1.98 0.66 3 1 C1.63875 2.11375 1.63875 2.11375 0.25 3.25 C-2.3069423 5.37674584 -4.69110193 7.60229816 -7 10 C-5.7771055 5.10842202 -4.3522544 2.65381366 0 0 Z " fill="#9A9C9E" transform="translate(21,14)"/>
<path d="M0 0 C0.33 0 0.66 0 1 0 C1.125 2.375 1.125 2.375 1 5 C-1 7 -1 7 -3.625 7.125 C-4.40875 7.08375 -5.1925 7.0425 -6 7 C-5.02433888 5.83040013 -4.044375 4.66438823 -3.0625 3.5 C-2.51722656 2.8503125 -1.97195312 2.200625 -1.41015625 1.53125 C-0.71212891 0.77328125 -0.71212891 0.77328125 0 0 Z " fill="#BCBDC1" transform="translate(122,7)"/>
<path d="M0 0 C2.04119788 1.61594832 4.04072937 3.2856382 6 5 C6 5.66 6 6.32 6 7 C3.03 6.505 3.03 6.505 0 6 C0 4.02 0 2.04 0 0 Z " fill="#BCBDC1" transform="translate(5,7)"/>
<path d="M0 0 C1.32 1.32 2.64 2.64 4 4 C3.01 4.66 2.02 5.32 1 6 C0.01 4.68 -0.98 3.36 -2 2 C-1.34 1.34 -0.68 0.68 0 0 Z " fill="#0089B2" transform="translate(26,66)"/>
<path d="M0 0 C1.32 1.32 2.64 2.64 4 4 C3.01 4.66 2.02 5.32 1 6 C0.01 4.68 -0.98 3.36 -2 2 C-1.34 1.34 -0.68 0.68 0 0 Z " fill="#00A5CC" transform="translate(68,24)"/>
<path d="M0 0 C1.32 0.66 2.64 1.32 4 2 C4 2.99 4 3.98 4 5 C2.68 4.67 1.36 4.34 0 4 C0 2.68 0 1.36 0 0 Z " fill="#004B7F" transform="translate(29,70)"/>
</svg>
