<?xml version="1.0" standalone="no"?>
<!DOCTYPE svg PUBLIC "-//W3C//DTD SVG 20010904//EN"
 "http://www.w3.org/TR/2001/REC-SVG-20010904/DTD/svg10.dtd">
<svg version="1.0" xmlns="http://www.w3.org/2000/svg"
 width="128.000000pt" height="128.000000pt" viewBox="0 0 128.000000 128.000000"
 preserveAspectRatio="xMidYMid meet">

<g transform="translate(0.000000,128.000000) scale(0.100000,-0.100000)"
fill="#000000" stroke="none">
<path d="M0 674 c0 -426 3 -611 11 -626 8 -15 8 -18 0 -14 -7 4 -11 -1 -11
-13 0 -15 6 -21 21 -21 13 0 18 4 13 13 -6 9 -4 9 8 -1 12 -10 149 -12 627
-12 552 1 611 2 611 17 0 13 -2 14 -17 2 -16 -13 -16 -13 0 11 16 22 17 75 17
610 0 455 -3 589 -12 599 -10 11 -10 13 0 7 8 -5 12 0 12 13 0 15 -6 21 -21
21 -12 0 -17 -4 -13 -11 4 -8 1 -8 -14 0 -15 8 -200 11 -626 11 l-605 -1 -1
-605z m40 592 c0 -2 -8 -10 -17 -17 -16 -13 -17 -12 -4 4 13 16 21 21 21 13z"/>
</g>
</svg>
