<?xml version="1.0" encoding="UTF-8"?>
<svg version="1.1" xmlns="http://www.w3.org/2000/svg" width="128" height="128">
<path d="M0 0 C42.24 0 84.48 0 128 0 C128 42.24 128 84.48 128 128 C85.76 128 43.52 128 0 128 C0 85.76 0 43.52 0 0 Z " fill="#66579A" transform="translate(0,0)"/>
<path d="M0 0 C2.125 0.375 2.125 0.375 4 1 C4 2.98 4 4.96 4 7 C13.57 7 23.14 7 33 7 C33 5.02 33 3.04 33 1 C34.9375 0.4375 34.9375 0.4375 37 0 C38 1 38 1 38.0625 4.0625 C38.041875 5.031875 38.02125 6.00125 38 7 C38.59167969 6.95359375 39.18335938 6.9071875 39.79296875 6.859375 C44.01985618 6.66630347 46.3248392 6.5780245 50 8.875 C52.89756568 11.95366353 53.1302836 13.6147917 53.17700195 17.73754883 C53.19625481 19.21467094 53.19625481 19.21467094 53.21589661 20.72163391 C53.22328354 21.78931503 53.23067047 22.85699615 53.23828125 23.95703125 C53.246353 25.05214523 53.25442474 26.14725922 53.26274109 27.27555847 C53.27658904 29.5965313 53.287308 31.91752455 53.29516602 34.23852539 C53.31237955 37.78766483 53.3562606 41.33587316 53.40039062 44.88476562 C53.41051725 47.13801397 53.41903344 49.39127025 53.42578125 51.64453125 C53.44328934 52.70613968 53.46079742 53.76774811 53.47883606 54.86152649 C53.45711381 62.24346461 53.45711381 62.24346461 51.09838867 66.1472168 C47.79378697 69.06503208 45.86266075 69.13772442 41.52807617 69.19287109 C39.81070503 69.21696548 39.81070503 69.21696548 38.05863953 69.24154663 C32.8202795 69.28590947 27.58200712 69.327501 22.34350586 69.35009766 C19.57786957 69.36343269 16.81297192 69.39127554 14.04760742 69.43212891 C10.06691468 69.49093476 6.08658105 69.50875882 2.10546875 69.5234375 C0.25057076 69.55744156 0.25057076 69.55744156 -1.64179993 69.59213257 C-9.96049095 69.57159447 -9.96049095 69.57159447 -14.27758789 67.19775391 C-16.91068316 62.30926604 -16.71460485 57.78535595 -16.6640625 52.3125 C-16.66884613 51.17723877 -16.67362976 50.04197754 -16.67855835 48.87231445 C-16.68195672 46.47508354 -16.67275891 44.07780625 -16.65185547 41.68066406 C-16.62509208 38.01262006 -16.65160868 34.34763639 -16.68359375 30.6796875 C-16.68028964 28.34895158 -16.6738834 26.01821757 -16.6640625 23.6875 C-16.67418365 22.59155518 -16.68430481 21.49561035 -16.69473267 20.36645508 C-16.57794559 12.77447427 -16.57794559 12.77447427 -13.61206055 8.80004883 C-10.78152747 6.84944406 -9.56537125 6.43542006 -6.1875 6.6875 C-5.39730469 6.73261719 -4.60710938 6.77773438 -3.79296875 6.82421875 C-3.20128906 6.88222656 -2.60960937 6.94023437 -2 7 C-2.04125 6.21625 -2.0825 5.4325 -2.125 4.625 C-2 2 -2 2 0 0 Z " fill="#F9AF05" transform="translate(46,12)"/>
<path d="M0 0 C1.23556641 0.01740234 1.23556641 0.01740234 2.49609375 0.03515625 C3.32238281 0.04417969 4.14867187 0.05320312 5 0.0625 C5.63808594 0.07410156 6.27617188 0.08570312 6.93359375 0.09765625 C7.26359375 2.40765625 7.59359375 4.71765625 7.93359375 7.09765625 C8.59359375 7.09765625 9.25359375 7.09765625 9.93359375 7.09765625 C10.26359375 4.78765625 10.59359375 2.47765625 10.93359375 0.09765625 C20.83359375 0.09765625 30.73359375 0.09765625 40.93359375 0.09765625 C40.93359375 2.40765625 40.93359375 4.71765625 40.93359375 7.09765625 C42.25359375 6.76765625 43.57359375 6.43765625 44.93359375 6.09765625 C45.26359375 4.11765625 45.59359375 2.13765625 45.93359375 0.09765625 C51.98828125 -0.09765625 51.98828125 -0.09765625 53.93359375 0.09765625 C55.93359375 2.09765625 55.93359375 2.09765625 55.93359375 13.09765625 C36.46359375 13.09765625 16.99359375 13.09765625 -3.06640625 13.09765625 C-3.06640625 0.14491523 -3.06640625 0.14491523 0 0 Z " fill="#6F5D91" transform="translate(38.06640625,23.90234375)"/>
<path d="M0 0 C0.99 0 1.98 0 3 0 C3.33 3.3 3.66 6.6 4 10 C4.99 9.34 5.98 8.68 7 8 C8.32 8 9.64 8 11 8 C11 7.34 11 6.68 11 6 C9.35 6 7.7 6 6 6 C6 5.34 6 4.68 6 4 C7.99954746 3.95745644 10.00041636 3.95919217 12 4 C13 5 13 5 13.09765625 7.06640625 C13.06510417 9.37760417 13.03255208 11.68880208 13 14 C8.71 14 4.42 14 0 14 C0 9.38 0 4.76 0 0 Z " fill="#A29AC2" transform="translate(44,93)"/>
<path d="M0 0 C6.0546875 -0.1953125 6.0546875 -0.1953125 8 0 C10 2 10 2 10.25 4.5 C10 7 10 7 8 9 C5.375 9.125 5.375 9.125 3 9 C3 10.65 3 12.3 3 14 C2.01 14 1.02 14 0 14 C0 9.38 0 4.76 0 0 Z " fill="#F0EFF4" transform="translate(32,93)"/>
<path d="M0 0 C0.94875 0.04125 1.8975 0.0825 2.875 0.125 C3.205 2.105 3.535 4.085 3.875 6.125 C1.895 6.125 -0.085 6.125 -2.125 6.125 C-2.125 6.785 -2.125 7.445 -2.125 8.125 C-0.475 8.125 1.175 8.125 2.875 8.125 C2.875 8.785 2.875 9.445 2.875 10.125 C0 10.25 0 10.25 -3.125 10.125 C-5.125 8.125 -5.125 8.125 -5.375 5.125 C-5.02345647 0.90647769 -4.22997422 0.16919897 0 0 Z " fill="#F7F7F9" transform="translate(86.125,96.875)"/>
<path d="M0 0 C6.15234375 -0.09765625 6.15234375 -0.09765625 8 0 C9 1 9 1 9.09765625 3.06640625 C9.08605469 3.89011719 9.07445313 4.71382813 9.0625 5.5625 C9.05347656 6.38878906 9.04445313 7.21507813 9.03515625 8.06640625 C9.02355469 8.70449219 9.01195313 9.34257813 9 10 C8.01 10 7.02 10 6 10 C6 7.36 6 4.72 6 2 C5.01 2.495 5.01 2.495 4 3 C3.59270772 5.32156597 3.25561323 7.6568787 3 10 C2.01 10 1.02 10 0 10 C0 6.7 0 3.4 0 0 Z " fill="#EAE8F0" transform="translate(70,97)"/>
<path d="M0 0 C6.15234375 -0.09765625 6.15234375 -0.09765625 8 0 C9 1 9 1 9.09765625 3.06640625 C9.08605469 3.89011719 9.07445313 4.71382813 9.0625 5.5625 C9.05347656 6.38878906 9.04445313 7.21507813 9.03515625 8.06640625 C9.02355469 8.70449219 9.01195313 9.34257813 9 10 C8.34 10 7.68 10 7 10 C6.67 7.69 6.34 5.38 6 3 C5.34 3 4.68 3 4 3 C3.67 5.31 3.34 7.62 3 10 C2.01 10 1.02 10 0 10 C0 6.7 0 3.4 0 0 Z " fill="#E4E1EC" transform="translate(59,97)"/>
<path d="M0 0 C2.05078125 0.03255208 4.1015625 0.06510417 6.15234375 0.09765625 C6.71484375 2.03515625 6.71484375 2.03515625 7.15234375 4.09765625 C6.15234375 5.09765625 6.15234375 5.09765625 4.3046875 5.1953125 C2.25390625 5.16276042 0.203125 5.13020833 -1.84765625 5.09765625 C-2.41015625 3.16015625 -2.41015625 3.16015625 -2.84765625 1.09765625 C-1.84765625 0.09765625 -1.84765625 0.09765625 0 0 Z " fill="#6F5D8F" transform="translate(61.84765625,65.90234375)"/>
<path d="M0 0 C2.05078125 0.03255208 4.1015625 0.06510417 6.15234375 0.09765625 C6.71484375 2.03515625 6.71484375 2.03515625 7.15234375 4.09765625 C6.15234375 5.09765625 6.15234375 5.09765625 4.3046875 5.1953125 C2.25390625 5.16276042 0.203125 5.13020833 -1.84765625 5.09765625 C-2.41015625 3.16015625 -2.41015625 3.16015625 -2.84765625 1.09765625 C-1.84765625 0.09765625 -1.84765625 0.09765625 0 0 Z " fill="#6F5D90" transform="translate(44.84765625,65.90234375)"/>
<path d="M0 0 C2.05078125 0.03255208 4.1015625 0.06510417 6.15234375 0.09765625 C6.71484375 2.03515625 6.71484375 2.03515625 7.15234375 4.09765625 C6.15234375 5.09765625 6.15234375 5.09765625 4.3046875 5.1953125 C2.25390625 5.16276042 0.203125 5.13020833 -1.84765625 5.09765625 C-2.41015625 3.16015625 -2.41015625 3.16015625 -2.84765625 1.09765625 C-1.84765625 0.09765625 -1.84765625 0.09765625 0 0 Z " fill="#6F5D8F" transform="translate(61.84765625,55.90234375)"/>
<path d="M0 0 C2.05078125 0.03255208 4.1015625 0.06510417 6.15234375 0.09765625 C6.71484375 2.03515625 6.71484375 2.03515625 7.15234375 4.09765625 C6.15234375 5.09765625 6.15234375 5.09765625 4.3046875 5.1953125 C2.25390625 5.16276042 0.203125 5.13020833 -1.84765625 5.09765625 C-2.41015625 3.16015625 -2.41015625 3.16015625 -2.84765625 1.09765625 C-1.84765625 0.09765625 -1.84765625 0.09765625 0 0 Z " fill="#6F5D90" transform="translate(44.84765625,55.90234375)"/>
<path d="M0 0 C2.64 0 5.28 0 8 0 C8.33 1.65 8.66 3.3 9 5 C6.03 5 3.06 5 0 5 C-0.33 4.01 -0.66 3.02 -1 2 C-0.67 1.34 -0.34 0.68 0 0 Z " fill="#75608A" transform="translate(60,46)"/>
<path d="M0 0 C2.05078125 0.03255208 4.1015625 0.06510417 6.15234375 0.09765625 C6.71484375 2.03515625 6.71484375 2.03515625 7.15234375 4.09765625 C6.15234375 5.09765625 6.15234375 5.09765625 4.3046875 5.1953125 C2.25390625 5.16276042 0.203125 5.13020833 -1.84765625 5.09765625 C-2.41015625 3.16015625 -2.41015625 3.16015625 -2.84765625 1.09765625 C-1.84765625 0.09765625 -1.84765625 0.09765625 0 0 Z " fill="#74608B" transform="translate(44.84765625,45.90234375)"/>
<path d="M0 0 C1.99954746 -0.04254356 4.00041636 -0.04080783 6 0 C7 1 7 1 7.09765625 3.06640625 C7.08605469 3.89011719 7.07445312 4.71382813 7.0625 5.5625 C7.05347656 6.38878906 7.04445313 7.21507813 7.03515625 8.06640625 C7.02355469 8.70449219 7.01195312 9.34257813 7 10 C4.69 10 2.38 10 0 10 C0 8.68 0 7.36 0 6 C0.33 6.66 0.66 7.32 1 8 C1.99 7.67 2.98 7.34 4 7 C4.33 6.34 4.66 5.68 5 5 C4.34 4.67 3.68 4.34 3 4 C3.66 4 4.32 4 5 4 C5 3.34 5 2.68 5 2 C3.35 2 1.7 2 0 2 C0 1.34 0 0.68 0 0 Z " fill="#FAF9FB" transform="translate(50,97)"/>
<path d="M0 0 C1.134375 0.020625 2.26875 0.04125 3.4375 0.0625 C3.7675 1.7125 4.0975 3.3625 4.4375 5.0625 C1.4675 5.0625 -1.5025 5.0625 -4.5625 5.0625 C-4.5625 0.08004386 -4.5625 0.08004386 0 0 Z " fill="#735F8C" transform="translate(81.5625,45.9375)"/>
<path d="M0 0 C2.64 0 5.28 0 8 0 C8.5625 1.9375 8.5625 1.9375 9 4 C8 5 8 5 6.15234375 5.09765625 C4.1015625 5.06510417 2.05078125 5.03255208 0 5 C0 3.35 0 1.7 0 0 Z " fill="#6C5B93" transform="translate(77,66)"/>
<path d="M0 0 C2.64 0 5.28 0 8 0 C8.5625 1.9375 8.5625 1.9375 9 4 C8 5 8 5 6.15234375 5.09765625 C4.1015625 5.06510417 2.05078125 5.03255208 0 5 C0 3.35 0 1.7 0 0 Z " fill="#6C5B93" transform="translate(77,56)"/>
<path d="M0 0 C0.66 0 1.32 0 2 0 C2 3.96 2 7.92 2 12 C2.66 12 3.32 12 4 12 C4 12.66 4 13.32 4 14 C2.68 14 1.36 14 0 14 C0 9.38 0 4.76 0 0 Z " fill="#FEFEFE" transform="translate(44,93)"/>
<path d="M0 0 C1.65 0 3.3 0 5 0 C5 0.66 5 1.32 5 2 C4.01 2.495 4.01 2.495 3 3 C2.59270772 5.32156597 2.25561323 7.6568787 2 10 C1.34 10 0.68 10 0 10 C0 6.7 0 3.4 0 0 Z " fill="#FCFCFC" transform="translate(92,97)"/>
<path d="M0 0 C0.33 1.98 0.66 3.96 1 6 C-1.31 6.33 -3.62 6.66 -6 7 C-6 6.34 -6 5.68 -6 5 C-4.02 5 -2.04 5 0 5 C-1.65 4.67 -3.3 4.34 -5 4 C-4.67 3.01 -4.34 2.02 -4 1 C-2 0 -2 0 0 0 Z " fill="#BEB8D4" transform="translate(89,97)"/>
<path d="M0 0 C2.475 0.495 2.475 0.495 5 1 C5 3.97 5 6.94 5 10 C4.34 10 3.68 10 3 10 C2.87625 8.865625 2.7525 7.73125 2.625 6.5625 C2.41875 5.386875 2.2125 4.21125 2 3 C1.34 2.67 0.68 2.34 0 2 C0 1.34 0 0.68 0 0 Z " fill="#FCFCFC" transform="translate(63,97)"/>
<path d="M0 0 C0.33 0 0.66 0 1 0 C1 1.65 1 3.3 1 5 C2.32 5 3.64 5 5 5 C5 5.66 5 6.32 5 7 C4.01 7 3.02 7 2 7 C2 8.65 2 10.3 2 12 C1.34 12 0.68 12 0 12 C0 8.04 0 4.08 0 0 Z " fill="#FBFAFB" transform="translate(33,95)"/>
<path d="M0 0 C1.32 0.33 2.64 0.66 4 1 C3.67 2.32 3.34 3.64 3 5 C2.01 5 1.02 5 0 5 C0 3.35 0 1.7 0 0 Z " fill="#7266A2" transform="translate(35,95)"/>
</svg>
