<?xml version="1.0" encoding="UTF-8"?>
<svg version="1.1" xmlns="http://www.w3.org/2000/svg" width="128" height="128">
<path d="M0 0 C42.24 0 84.48 0 128 0 C128 42.24 128 84.48 128 128 C85.76 128 43.52 128 0 128 C0 85.76 0 43.52 0 0 Z " fill="#95BF3B" transform="translate(0,0)"/>
<path d="M0 0 C0.93585938 0.33 1.87171875 0.66 2.8359375 1 C17.02463754 6.43244938 26.10797397 15.4395633 32.73828125 28.97265625 C37.660317 40.78249435 37.60067786 53.98480538 33.32421875 66.00390625 C27.28693846 79.66347552 17.77266432 89.37493612 4.0703125 95.2578125 C-7.61881174 99.42625331 -20.57349063 99.8663459 -32.22265625 95.328125 C-47.42557233 88.05809481 -56.06402259 77.94870268 -62.23828125 62.421875 C-66.18797273 49.86388158 -64.40536011 36.84784404 -58.609375 25.20703125 C-50.80319766 11.62839118 -40.04542001 3.68180667 -25.25 -1.25 C-17.04646572 -3.08759168 -7.92462589 -2.84930369 0 0 Z " fill="#FCFDFA" transform="translate(78,16)"/>
<path d="M0 0 C0.93585938 0.33 1.87171875 0.66 2.8359375 1 C17.02463754 6.43244938 26.10797397 15.4395633 32.73828125 28.97265625 C37.660317 40.78249435 37.60067786 53.98480538 33.32421875 66.00390625 C27.28693846 79.66347552 17.77266432 89.37493612 4.0703125 95.2578125 C-7.61881174 99.42625331 -20.57349063 99.8663459 -32.22265625 95.328125 C-47.42557233 88.05809481 -56.06402259 77.94870268 -62.23828125 62.421875 C-66.18797273 49.86388158 -64.40536011 36.84784404 -58.609375 25.20703125 C-50.80319766 11.62839118 -40.04542001 3.68180667 -25.25 -1.25 C-17.04646572 -3.08759168 -7.92462589 -2.84930369 0 0 Z M-48 19 C-56.20636991 30.52976406 -59.64219681 41.96388075 -57.5390625 56.09765625 C-54.90749795 68.09449463 -48.58203613 77.71839589 -38.4765625 84.7578125 C-26.59574994 92.14318247 -12.83482718 93.26879638 0.79296875 90.125 C11.3565313 85.97063646 20.86156195 78.27687611 26 68 C26.04846582 66.63236643 26.03710019 65.26228612 25.9921875 63.89453125 C25.97542969 63.07533203 25.95867187 62.25613281 25.94140625 61.41210938 C25.8976284 59.69833541 25.84573279 57.98474682 25.78515625 56.27148438 C25.68838916 50.6370006 26.54721742 47.0584659 29 42 C29.25269417 38.70714899 29.25269417 38.70714899 29 36 C25.75214319 37.44836858 23.41473872 39.28636567 20.75 41.625 C12.20901136 48.55901744 1.10059676 54.82205898 -10 56 C-10.98484375 56.10699219 -11.9696875 56.21398437 -12.984375 56.32421875 C-15.65502402 56.58518318 -18.32350779 56.80989401 -21 57 C-21.18175781 58.16789062 -21.18175781 58.16789062 -21.3671875 59.359375 C-22 62 -22 62 -24.125 64.25 C-27.47336473 66.28813505 -30.12262548 66.69589219 -34 67 C-31.25 62.125 -31.25 62.125 -29 61 C-29 60.34 -29 59.68 -29 59 C-29.83144531 59.03480469 -30.66289063 59.06960937 -31.51953125 59.10546875 C-33.14955078 59.14607422 -33.14955078 59.14607422 -34.8125 59.1875 C-35.89144531 59.22230469 -36.97039063 59.25710937 -38.08203125 59.29296875 C-41 59 -41 59 -42.88671875 57.48828125 C-43.25410156 56.99714844 -43.62148438 56.50601563 -44 56 C-41.70370006 54.85185003 -39.92301914 54.69230191 -37.375 54.4375 C-36.55773437 54.35371094 -35.74046875 54.26992187 -34.8984375 54.18359375 C-34.27195312 54.12300781 -33.64546875 54.06242187 -33 54 C-33.721875 53.34 -34.44375 52.68 -35.1875 52 C-38.45688866 48.75863467 -40.6930039 44.95625289 -43 41 C-41.27473958 41.74869792 -39.54947917 42.49739583 -37.82421875 43.24609375 C-36.24288979 43.89961942 -34.62324594 44.45891802 -33 45 C-33 43.68 -33 42.36 -33 41 C-32.45730469 41.20496094 -31.91460937 41.40992188 -31.35546875 41.62109375 C-30.64003906 41.89050781 -29.92460938 42.15992188 -29.1875 42.4375 C-28.47980469 42.70433594 -27.77210937 42.97117188 -27.04296875 43.24609375 C-25.37327604 43.86225186 -23.68842296 44.43719235 -22 45 C-22.66 43.02 -23.32 41.04 -24 39 C-17.70375792 40.92088742 -14.71643673 42.53465186 -11 48 C-9.6875 50.875 -9.6875 50.875 -9 53 C-9.99 53.33 -10.98 53.66 -12 54 C0.9588282 53.77657193 11.55434991 46.26926876 21 38 C22.20611526 36.99732587 23.41409508 35.99688451 24.625 35 C25.40875 34.34 26.1925 33.68 27 33 C26.86643732 30.59032521 26.86643732 30.59032521 26 28 C23.88816366 26.31287898 23.88816366 26.31287898 21.25 25.0625 C16.02604888 22.14214041 12.7065158 19.49429426 10.015625 13.984375 C7.65520195 9.36615599 5.53057436 7.35190357 0.625 5.5 C-17.14280774 0.57665426 -35.49395464 5.35943998 -48 19 Z " fill="#9CC349" transform="translate(78,16)"/>
<path d="M0 0 C0.93585938 0.33 1.87171875 0.66 2.8359375 1 C17.02463754 6.43244938 26.10797397 15.4395633 32.73828125 28.97265625 C37.660317 40.78249435 37.60067786 53.98480538 33.32421875 66.00390625 C27.28693846 79.66347552 17.77266432 89.37493612 4.0703125 95.2578125 C-7.61881174 99.42625331 -20.57349063 99.8663459 -32.22265625 95.328125 C-47.42557233 88.05809481 -56.06402259 77.94870268 -62.23828125 62.421875 C-66.18797273 49.86388158 -64.40536011 36.84784404 -58.609375 25.20703125 C-50.80319766 11.62839118 -40.04542001 3.68180667 -25.25 -1.25 C-17.04646572 -3.08759168 -7.92462589 -2.84930369 0 0 Z M-52.20703125 20.5234375 C-60.6947451 32.24720784 -61.15444906 45.0534271 -60 59 C-57.59194769 69.75746733 -50.27021488 80.51793841 -41.13671875 86.7265625 C-29.06784107 93.91934883 -17.5903671 97.0733088 -3.48828125 94.3125 C9.7451303 90.5538979 19.55470066 83.91929287 26.75 72.1875 C32.99730413 60.83004149 34.92635929 49.41412872 32.30859375 36.62109375 C30.27815601 29.96907388 27.16737677 24.5297884 23 19 C22.13375 17.700625 22.13375 17.700625 21.25 16.375 C13.80831028 8.51988307 3.1765204 2.07996987 -7.78125 1.7265625 C-26.89814655 1.24549724 -39.49948966 5.7613832 -52.20703125 20.5234375 Z " fill="#F4F8EC" transform="translate(78,16)"/>
<path d="M0 0 C5.81435334 0.28362699 9.19901923 2.81696188 13 7 C14.60207325 9.67879131 15 10.81071605 15 14 C24.49343639 12.44369895 32.79195051 8.46238919 40 2 C40.66 2.33 41.32 2.66 42 3 C39.6175226 8.21053263 36.32755646 9.852042 31.375 12.1875 C30.65296387 12.53627197 29.93092773 12.88504395 29.18701172 13.24438477 C24.20834901 15.58593481 19.50150061 17.39779492 14 18 C13.08863281 18.10699219 12.17726562 18.21398437 11.23828125 18.32421875 C8.8268613 18.58318575 6.41754975 18.80821108 4 19 C3.88914062 19.60328125 3.77828125 20.2065625 3.6640625 20.828125 C2.59968405 24.30926865 0.09304892 26.29608588 -3 28 C-6.875 28.3125 -6.875 28.3125 -10 28 C-9.1875 25.5625 -9.1875 25.5625 -8 23 C-7.01 22.67 -6.02 22.34 -5 22 C-5 21.34 -5 20.68 -5 20 C-5.99 20.33 -6.98 20.66 -8 21 C-12.52786786 21.50865551 -15.87568033 21.87751779 -19.5625 19 C-20.2740625 18.01 -20.2740625 18.01 -21 17 C-18.09907498 15.06604999 -17.10325263 14.69868059 -13.8125 14.375 C-12.554375 14.25125 -11.29625 14.1275 -10 14 C-10.48210938 13.63648437 -10.96421875 13.27296875 -11.4609375 12.8984375 C-15.57776088 9.62178216 -17.85437362 7.34625645 -19 2 C-15.26512223 2.4979837 -13.18762365 2.87491756 -10 5 C-9.67 4.01 -9.34 3.02 -9 2 C-4.44262737 2.43820891 -1.42346555 2.85041169 2 6 C1.34 4.02 0.68 2.04 0 0 Z " fill="#F7FAF1" transform="translate(54,55)"/>
<path d="M0 0 C5.57975935 -0.55797593 9.43807382 0.94614859 14 4 C17.66134716 7.35938038 20.07619814 11.44362717 22 16 C22 16.99 22 17.98 22 19 C15.456053 18.72153417 10.85340909 16.40499629 6 12 C0 3.97131148 0 3.97131148 0 0 Z " fill="#99C144" transform="translate(76,33)"/>
<path d="M0 0 C3.0094258 3.0094258 3.21871739 5.84409769 3.375 9.9375 C3.33110667 16.51272081 1.35146476 22.35443401 -2 28 C-2.99 28.33 -3.98 28.66 -5 29 C-7.55935258 23.88129484 -6.79891684 15.61320271 -6 10 C-4.48303303 6.20979389 -2.59399021 3.14212505 0 0 Z " fill="#9AC244" transform="translate(98,60)"/>
<path d="M0 0 C0.33 0 0.66 0 1 0 C1.42602583 8.58363149 1.2209434 15.2153915 -4.5 21.9375 C-7 24 -7 24 -10 25 C-10.45255359 16.82051281 -10.04489825 10.4162273 -4.4375 4.125 C-3.2309375 3.073125 -3.2309375 3.073125 -2 2 C-1.34 1.34 -0.68 0.68 0 0 Z " fill="#9AC245" transform="translate(88,67)"/>
<path d="M0 0 C5.6875033 0.54166698 9.57983251 2.31959945 13.453125 6.609375 C16.29369493 10.29885088 17.65254688 13.25147401 18 18 C12.04556428 17.70227821 8.13239102 15.09722174 4 11 C1.57388655 7.40826779 0 4.36708229 0 0 Z " fill="#9AC245" transform="translate(70,42)"/>
<path d="M0 0 C-0.35999321 7.77585342 -1.85578712 14.00551154 -7.625 19.5 C-10 21 -10 21 -12 21 C-12.49537157 15.05554117 -11.4428854 10.92551524 -8 6 C-2.1656051 0 -2.1656051 0 0 0 Z " fill="#9AC245" transform="translate(78,72)"/>
<path d="M0 0 C4.14864658 0 6.75635521 0.00933999 10.0546875 2.63671875 C13.60553326 6.50434121 15.86390751 9.55630045 16 15 C10.43549353 14.86088734 7.69718671 12.42713774 3.734375 8.88671875 C1.04669063 5.96295399 0 3.99220006 0 0 Z " fill="#99C144" transform="translate(62,50)"/>
<path d="M0 0 C0.66 0.33 1.32 0.66 2 1 C-0.38225411 6.2100443 -3.67235004 7.85283341 -8.625 10.1875 C-9.34776123 10.53554687 -10.07052246 10.88359375 -10.81518555 11.2421875 C-19.7135206 15.41693721 -27.18708011 16.33015431 -37 16 C-37 15.34 -37 14.68 -37 14 C-36.05640625 13.91363281 -35.1128125 13.82726562 -34.140625 13.73828125 C-20.80637538 12.27901096 -10.73903759 8.24434965 0 0 Z " fill="#9EC44C" transform="translate(94,57)"/>
<path d="M0 0 C5.81435334 0.28362699 9.19901923 2.81696188 13 7 C14.60207325 9.67879131 15 10.81071605 15 14 C10.44122733 13.4636738 7.55962774 11.8779969 4 9 C2.01036477 6.25736436 0 3.48577591 0 0 Z " fill="#9CC348" transform="translate(54,55)"/>
<path d="M0 0 C-0.51027301 4.38834787 -1.24032405 7.50441046 -4 11 C-9.73289902 15 -9.73289902 15 -12 15 C-11.61487948 9.31947236 -11.17706282 6.17706282 -7 2 C-4 0 -4 0 0 0 Z " fill="#99C143" transform="translate(67,76)"/>
<path d="M0 0 C3.42810525 0.06856211 6.04774311 0.21839092 8.765625 2.44921875 C11.70699954 5.74041696 13.72402496 8.44641188 14 13 C8.75339567 12.68202398 5.38174647 9.79139101 2 6 C0.5625 2.625 0.5625 2.625 0 0 Z " fill="#9AC245" transform="translate(45,57)"/>
<path d="M0 0 C3.82836401 0.26709516 5.70941223 0.76885063 8.75 3.1875 C11.08009286 6.10011608 12.08193312 8.41119312 13 12 C8.068778 11.56489218 5.45118597 9.45118597 2 6 C0.625 2.6875 0.625 2.6875 0 0 Z " fill="#9EC44B" transform="translate(35,57)"/>
<path d="M0 0 C-0.2449071 3.30624582 -1.27722338 4.29042449 -3.625 6.75 C-6.98690246 9.41830608 -9.74400319 9.42559968 -14 9 C-13.08259025 5.33036099 -11.85358306 3.60779821 -8.6875 1.6875 C-5.69180869 0.12698298 -3.41662096 -0.41413587 0 0 Z " fill="#9CC349" transform="translate(58,74)"/>
<path d="M0 0 C0.76183594 -0.00515625 1.52367187 -0.0103125 2.30859375 -0.015625 C4.77693018 0.2752708 6.420186 1.02024344 8.5625 2.25 C7.5625 5.25 7.5625 5.25 5.5625 6.25 C1.0490048 6.78151198 -2.32888503 7.11526046 -6 4.25 C-6.7115625 3.26 -6.7115625 3.26 -7.4375 2.25 C-4.32763793 0.17675862 -3.54641613 -0.02392186 0 0 Z " fill="#9AC246" transform="translate(40.4375,69.75)"/>
<path d="M0 0 C0.66 0.33 1.32 0.66 2 1 C1.57847656 1.62648437 1.15695313 2.25296875 0.72265625 2.8984375 C0.17480469 3.71570312 -0.37304688 4.53296875 -0.9375 5.375 C-1.48277344 6.18710938 -2.02804688 6.99921875 -2.58984375 7.8359375 C-5.0156517 11.55864554 -5.25742999 14.17969419 -5.5625 18.625 C-5.64628906 19.81351563 -5.73007813 21.00203125 -5.81640625 22.2265625 C-5.87699219 23.14179687 -5.93757813 24.05703125 -6 25 C-6.33 25 -6.66 25 -7 25 C-7.33 22.69 -7.66 20.38 -8 18 C-8.33 18 -8.66 18 -9 18 C-9.1953125 15.98177083 -9.390625 13.96354167 -9.5859375 11.9453125 C-9.86374749 9.77331755 -9.86374749 9.77331755 -12 8 C-11.21753906 7.50628906 -10.43507813 7.01257813 -9.62890625 6.50390625 C-8.61699219 5.86324219 -7.60507813 5.22257812 -6.5625 4.5625 C-5.55316406 3.92441406 -4.54382813 3.28632812 -3.50390625 2.62890625 C-1.15446165 1.22350458 -1.15446165 1.22350458 0 0 Z " fill="#ECF3DD" transform="translate(98,58)"/>
<path d="M0 0 C-0.33 0.99 -0.66 1.98 -1 3 C-1.66 3 -2.32 3 -3 3 C-4.79413296 6.31224546 -5.96157298 9.72164477 -7.12109375 13.29296875 C-8 15 -8 15 -11 16 C-10.69147815 14.041036 -10.3780582 12.08284287 -10.0625 10.125 C-9.80146484 8.48917969 -9.80146484 8.48917969 -9.53515625 6.8203125 C-9 4 -9 4 -8 2 C-5.09740189 0.6250851 -3.23861295 0 0 0 Z " fill="#F5F9EE" transform="translate(87,67)"/>
<path d="M0 0 C7.35135135 0.36756757 7.35135135 0.36756757 10.5 3.4375 C12 6 12 6 12 8 C5.8771271 7.75988734 5.8771271 7.75988734 3.421875 5.6328125 C0 1.52262931 0 1.52262931 0 0 Z " fill="#9BC246" transform="translate(25,59)"/>
<path d="M0 0 C0.66 0.33 1.32 0.66 2 1 C2 1.66 2 2.32 2 3 C-4.8165735 4.7879537 -10.96517526 5.23668569 -18 5 C-18 4.34 -18 3.68 -18 3 C-16.95199219 2.86722656 -15.90398438 2.73445313 -14.82421875 2.59765625 C-13.44529222 2.41942765 -12.06638707 2.24103359 -10.6875 2.0625 C-9.65206055 1.93198242 -9.65206055 1.93198242 -8.59570312 1.79882812 C-5.59857712 1.40789865 -2.87549881 0.9584996 0 0 Z " fill="#B3D174" transform="translate(75,68)"/>
<path d="M0 0 C0 0.66 0 1.32 0 2 C-0.68707031 2.20496094 -1.37414063 2.40992188 -2.08203125 2.62109375 C-2.98308594 2.89050781 -3.88414063 3.15992188 -4.8125 3.4375 C-6.15248047 3.83775391 -6.15248047 3.83775391 -7.51953125 4.24609375 C-9.35473055 4.80387873 -11.18033726 5.39344575 -13 6 C-12.73828125 4.11328125 -12.73828125 4.11328125 -12 2 C-10.29296875 0.91796875 -10.29296875 0.91796875 -8.1875 0.1875 C-7.50042969 -0.06644531 -6.81335937 -0.32039063 -6.10546875 -0.58203125 C-3.73131543 -1.05333812 -2.27685106 -0.75212833 0 0 Z " fill="#A3C755" transform="translate(57,19)"/>
<path d="M0 0 C0.33 0 0.66 0 1 0 C1.33 2.64 1.66 5.28 2 8 C1.01 8.33 0.02 8.66 -1 9 C-1.33 7.35 -1.66 5.7 -2 4 C-1.34 4 -0.68 4 0 4 C0 2.68 0 1.36 0 0 Z " fill="#ABCC64" transform="translate(20,69)"/>
</svg>
