<?xml version="1.0" encoding="UTF-8"?>
<svg version="1.1" xmlns="http://www.w3.org/2000/svg" width="128" height="128">
<path d="M0 0 C42.24 0 84.48 0 128 0 C128 42.24 128 84.48 128 128 C85.76 128 43.52 128 0 128 C0 85.76 0 43.52 0 0 Z " fill="#56B167" transform="translate(0,0)"/>
<path d="M0 0 C42.24 0 84.48 0 128 0 C128 20.79 128 41.58 128 63 C121.32495804 57.27853546 114.68989508 51.54094489 108.1875 45.625 C104.81059018 42.57141133 101.36782868 39.65570795 97.8125 36.8125 C92.30405072 32.36791432 87.16537682 27.57344898 82.03833008 22.6965332 C81.42755615 22.11734131 80.81678223 21.53814941 80.1875 20.94140625 C79.64480469 20.42263916 79.10210937 19.90387207 78.54296875 19.36938477 C73.80551841 15.16489759 69.85569893 15.58721299 63.76953125 15.6875 C52.08133476 16.65646966 40.63654781 22.35513629 32.66015625 30.97265625 C23.77250303 41.82604924 20.16787122 53.08603178 20.52734375 67.13671875 C23.07422365 87.95377842 34.29135458 104.96827914 47 121 C47.73734375 121.93585938 48.4746875 122.87171875 49.234375 123.8359375 C50.96885532 126.03610496 50.96885532 126.03610496 53 128 C35.51 128 18.02 128 0 128 C0 85.76 0 43.52 0 0 Z " fill="#6CC078" transform="translate(0,0)"/>
<path d="M0 0 C6.24907356 4.94199642 11.17828539 12.45728354 12.8125 20.3125 C13.37450916 26.98524366 13.10543827 33.00691975 10.8125 39.3125 C8.60627402 37.10627402 8.09965938 35.65677562 7.0625 32.75 C4.43611552 26.07782472 1.51754203 19.41464053 -5 15.8125 C-10.19676082 13.62386419 -15.7818475 12.51061583 -21.1875 14.3125 C-21.5175 29.4925 -21.8475 44.6725 -22.1875 60.3125 C-31.73290612 60.3125 -39.32421972 57.10353522 -46.1875 50.3125 C-53.64933193 40.15381972 -55.70278347 29.69530065 -54.1875 17.3125 C-53.04156496 13.52902025 -51.45521208 10.53503822 -49.1875 7.3125 C-48.445 6.24 -47.7025 5.1675 -46.9375 4.0625 C-33.1850771 -9.6899229 -15.86024454 -10.8138031 0 0 Z " fill="#EEECEC" transform="translate(93.1875,34.6875)"/>
<path d="M0 0 C1 1 1 1 1.0546875 2.9609375 C0.57342657 9.42657343 0.57342657 9.42657343 -1.875 11.875 C-5 13 -5 13 -7.390625 13.55078125 C-16.19367099 15.60063339 -23.44078142 19.27302208 -28.98828125 26.640625 C-34.68896164 35.94674764 -35.75119333 46.45273745 -33.28125 57.09765625 C-32.34678156 59.53556384 -31.29814642 61.73678421 -30 64 C-29.649375 64.64195313 -29.29875 65.28390625 -28.9375 65.9453125 C-24.78174041 72.61184352 -17.59107309 77.22336587 -10 79 C-7.333724 79.4128114 -4.68582519 79.72215601 -2 80 C-2 85.28 -2 90.56 -2 96 C-15.81104345 96.54697202 -24.94373386 94.27590845 -36 86 C-37.03125 85.2575 -38.0625 84.515 -39.125 83.75 C-48.8293442 74.46758381 -54.15630166 62.29417886 -54.5 48.875 C-53.83993271 33.86270044 -49.20799978 22.15395757 -38.15234375 11.77734375 C-26.94333198 2.52126325 -14.46431316 -1.25866348 0 0 Z " fill="#ED4337" transform="translate(74,15)"/>
<path d="M0 0 C7.81850421 2.7756377 11.44912851 7.47991017 15.1875 14.8125 C15.69667969 15.78832031 16.20585938 16.76414062 16.73046875 17.76953125 C18.24020547 21.61123054 18.63199064 24.89869087 19 29 C2.14237295 30.0344453 2.14237295 30.0344453 -2.6875 26.125 C-3.46673828 25.32449219 -3.46673828 25.32449219 -4.26171875 24.5078125 C-6.43243308 22.43058134 -6.43243308 22.43058134 -12 21 C-12 29.58 -12 38.16 -12 47 C-12.33 47 -12.66 47 -13 47 C-13 31.82 -13 16.64 -13 1 C-8.05468704 -1.47265648 -5.2697547 -1.19413161 0 0 Z " fill="#60B06F" transform="translate(84,48)"/>
<path d="M0 0 C10.99721352 0.41111079 19.90368452 3.29654371 28 11 C35.39617676 20.01931962 37.96890661 28.38900443 37 40 C36.51372909 42.47291619 35.86380396 44.6245391 35 47 C32.79377402 44.79377402 32.28715938 43.34427562 31.25 40.4375 C28.62361552 33.76532472 25.70504203 27.10214053 19.1875 23.5 C13.9732328 21.29396388 8.59884475 21 3 21 C3 14.4 3 7.8 3 1 C2.01 0.67 1.02 0.34 0 0 Z " fill="#CED1D0" transform="translate(69,27)"/>
<path d="M0 0 C3.20428356 2.19576403 6.24283491 4.48566982 8 8 C8.50890436 14.10685229 8.0775461 17.12959772 4 22 C0.70048854 25.29951146 -2.3721844 25.92286974 -7 26 C-11.0710571 24.73527822 -14.1223267 22.95995517 -17 19.8125 C-18.92307045 14.40386435 -18.85198628 9.84029036 -16.4375 4.625 C-11.67402263 -0.5048987 -6.70781435 -2.03630078 0 0 Z " fill="#FAFAFA" transform="translate(62,39)"/>
<path d="M0 0 C6.48496241 1.08082707 6.48496241 1.08082707 9.375 4.0625 C15.22002311 8.86458761 22.88325662 7.46638852 30 7 C27.30088758 14.30705661 21.50385725 18.94383096 15 23 C9.70094636 25.40702776 5.928794 26 0 26 C0 17.42 0 8.84 0 0 Z " fill="#424143" transform="translate(72,69)"/>
<path d="M0 0 C2.4375 1 2.4375 1 4 3 C4.56153595 7.42209561 4.79893062 9.72171101 2.4375 13.5 C-0.94888329 15.58392818 -3.09385318 15.55802097 -7 15 C-9.4375 13.4375 -9.4375 13.4375 -11 11 C-11.56288002 7.05983987 -11.60396028 4.94217804 -9.4375 1.5625 C-6.08147594 -0.58879747 -3.91578329 -0.48947291 0 0 Z " fill="#0C0C0C" transform="translate(63,43)"/>
<path d="M0 0 C2.29201537 1.21777787 3.70321755 2.20321755 5.5625 4.0625 C5.2325 5.0525 4.9025 6.0425 4.5625 7.0625 C3.5725 6.4025 2.5825 5.7425 1.5625 5.0625 C-3.49860762 3.21324914 -7.19047821 2.67649424 -12.4375 4.0625 C-14.857613 5.97871575 -14.857613 5.97871575 -16.4375 8.0625 C-16.4375 4.7625 -16.4375 1.4625 -16.4375 -1.9375 C-10.79152849 -3.8194905 -5.26844858 -2.57654054 0 0 Z " fill="#464648" transform="translate(88.4375,49.9375)"/>
<path d="M0 0 C2.625 0.375 2.625 0.375 5 1 C5.625 3.375 5.625 3.375 6 6 C5.34 6.66 4.68 7.32 4 8 C1.375 7.625 1.375 7.625 -1 7 C-1.625 4.625 -1.625 4.625 -2 2 C-1.34 1.34 -0.68 0.68 0 0 Z " fill="#E5E5E5" transform="translate(60,45)"/>
<path d="M0 0 C3.86386961 0.69406547 7.51884917 1.71982147 11.25 2.9375 C12.30703125 3.27652344 13.3640625 3.61554688 14.453125 3.96484375 C17 5 17 5 18 7 C12.21717289 7.639903 8.15412198 7.65112385 3.375 4.0625 C1.3984375 2.41015625 1.3984375 2.41015625 0 1 C0 0.67 0 0.34 0 0 Z " fill="#C2CAC6" transform="translate(78,70)"/>
</svg>
