<?xml version="1.0" encoding="UTF-8"?>
<svg version="1.1" xmlns="http://www.w3.org/2000/svg" width="128" height="128">
<path d="M0 0 C4.61470476 3.392576 7.66665041 8.50392519 10.8125 13.25 C11.31458984 13.96285156 11.81667969 14.67570312 12.33398438 15.41015625 C16.38067078 21.52147857 16.89323262 26.10617445 15.59155273 33.23779297 C15.08098551 35.46158601 14.47001722 37.62797265 13.8125 39.8125 C13.61591797 40.54919922 13.41933594 41.28589844 13.21679688 42.04492188 C11.82052873 46.80082598 10.49974967 49.4902971 6 52 C2.56776041 53.1575931 -0.9020033 53.97302146 -4.4375 54.75 C-5.36626953 54.97042969 -6.29503906 55.19085938 -7.25195312 55.41796875 C-18.83123287 58.07172539 -18.83123287 58.07172539 -24.01171875 55.51171875 C-27.77258037 52.35062852 -30.18622665 48.93023723 -32.8125 44.8125 C-33.30169922 44.09513672 -33.79089844 43.37777344 -34.29492188 42.63867188 C-38.04794575 36.84043167 -39.68929167 31.69802617 -38.67407227 24.77856445 C-38.17543992 22.55921961 -37.557594 20.41939356 -36.875 18.25 C-36.67390625 17.52167969 -36.4728125 16.79335937 -36.265625 16.04296875 C-34.80911847 11.20841997 -33.1806557 8.0825368 -29 5 C-25.8150301 3.73111967 -22.58987266 2.9409476 -19.25 2.1875 C-18.3940625 1.97158203 -17.538125 1.75566406 -16.65625 1.53320312 C-11.22762295 0.23773531 -5.56448792 -1.07338478 0 0 Z " fill="#A2A6AA" transform="translate(108,53)"/>
<path d="M0 0 C9.34035184 3.43620115 16.44594655 8.01018021 21 17 C22.09658782 18.79631529 23.2008133 20.5879896 24.3125 22.375 C27.32594609 27.35786362 28.69035661 31.08265763 28 37 C24.62622318 42.62711116 18.98221696 46.85421363 14 51 C13.25234375 51.6703125 12.5046875 52.340625 11.734375 53.03125 C10.97640625 53.6809375 10.2184375 54.330625 9.4375 55 C8.75558594 55.598125 8.07367188 56.19625 7.37109375 56.8125 C3.87747063 58.56218934 1.75384327 57.91760613 -2 57 C-11.92971194 53.34092796 -18.85241133 48.3409246 -24 39 C-24.64839844 37.99066406 -25.29679687 36.98132813 -25.96484375 35.94140625 C-32.31689564 25.86617147 -32.31689564 25.86617147 -31 20 C-25.31584554 10.52640924 -11.08099387 -2.24994799 0 0 Z " fill="#8F9397" transform="translate(35,66)"/>
<path d="M0 0 C5.24402638 0.08028619 9.84590257 2.13608044 14.66015625 4.046875 C15.57990234 4.39492187 16.49964844 4.74296875 17.44726562 5.1015625 C29.72550712 9.86809766 29.72550712 9.86809766 32.55859375 14.8828125 C32.86023438 15.80320312 33.161875 16.72359375 33.47265625 17.671875 C33.78976563 18.58710938 34.106875 19.50234375 34.43359375 20.4453125 C35.74422802 26.07333026 35.1780532 29.89375238 32.578125 35.02734375 C31.78631836 36.60225586 31.78631836 36.60225586 30.97851562 38.20898438 C30.14030273 39.83030273 30.14030273 39.83030273 29.28515625 41.484375 C28.73794922 42.57685547 28.19074219 43.66933594 27.62695312 44.79492188 C22.13325004 55.60253413 22.13325004 55.60253413 17.77148438 57.09033203 C12.44324575 57.50191803 7.52849378 54.98642321 2.59765625 53.171875 C1.46972656 52.78 0.34179688 52.388125 -0.8203125 51.984375 C-7.89998416 49.42061225 -12.46626623 47.52938958 -16.30078125 40.8671875 C-16.62304688 40.06023438 -16.9453125 39.25328125 -17.27734375 38.421875 C-17.78394531 37.21917969 -17.78394531 37.21917969 -18.30078125 35.9921875 C-19.78524331 29.34102633 -17.05593644 23.71319198 -14.21484375 17.859375 C-13.8583374 17.11236328 -13.50183105 16.36535156 -13.13452148 15.59570312 C-5.79896258 0.59316441 -5.79896258 0.59316441 0 0 Z " fill="#15494D" transform="translate(43.90234375,3.703125)"/>
<path d="M0 0 C6.72829379 0.37710201 12.2286797 1.89917296 18.4375 4.4375 C19.63922852 4.90639648 19.63922852 4.90639648 20.86523438 5.38476562 C26.71633185 7.71633185 26.71633185 7.71633185 29 10 C28.85785489 16.43833714 26.09544105 21.31106327 23.0625 26.875 C22.60681641 27.74125 22.15113281 28.6075 21.68164062 29.5 C18.27637607 35.86181196 18.27637607 35.86181196 16 37 C10.24240897 37.61592834 5.59691685 35.69695308 0.3125 33.6875 C-0.54150391 33.37876953 -1.39550781 33.07003906 -2.27539062 32.75195312 C-9.65215727 29.99942826 -9.65215727 29.99942826 -12 27 C-12 20.57075899 -9.04060754 15.64877036 -6 10.125 C-5.5359375 9.25875 -5.071875 8.3925 -4.59375 7.5 C-1.1932398 1.1932398 -1.1932398 1.1932398 0 0 Z " fill="#2DBAC5" transform="translate(46,21)"/>
<path d="M0 0 C2.99959824 0.84363701 3.65594521 1.92110213 5.25 4.5703125 C5.74628906 5.38886719 6.24257813 6.20742187 6.75390625 7.05078125 C7.24761719 7.90285156 7.74132812 8.75492188 8.25 9.6328125 C8.75402344 10.43332031 9.25804688 11.23382813 9.77734375 12.05859375 C13.25550015 17.79128921 13.25550015 17.79128921 13.234375 21.0234375 C11.84807321 24.69823748 9.35728678 26.9890046 6.5625 29.6328125 C6.04494141 30.14070313 5.52738281 30.64859375 4.99414062 31.171875 C3.43583573 32.68554601 1.84724551 34.16040577 0.25 35.6328125 C-0.50337646 36.36951172 -0.50337646 36.36951172 -1.27197266 37.12109375 C-3.68909195 39.35931311 -5.59912786 40.59189474 -8.7890625 41.45703125 C-12.83394906 40.33107998 -13.77886997 38.37338927 -15.83203125 34.83398438 C-16.25871094 34.04572266 -16.68539063 33.25746094 -17.125 32.4453125 C-17.79982422 31.29192383 -17.79982422 31.29192383 -18.48828125 30.11523438 C-22.78204866 22.5130474 -22.78204866 22.5130474 -21.75 18.6328125 C-19.6875 16.24609375 -19.6875 16.24609375 -16.75 13.6328125 C-15.62096492 12.52623744 -14.49617832 11.41531602 -13.375 10.30078125 C-12.16776923 9.13947774 -10.95941795 7.97933804 -9.75 6.8203125 C-8.84507813 5.9240918 -8.84507813 5.9240918 -7.921875 5.00976562 C-3.50169179 0.80578703 -3.50169179 0.80578703 0 0 Z " fill="#FBFBFB" transform="translate(27.75,68.3671875)"/>
<path d="M0 0 C2.51827751 1.9819171 4.19503459 4.37171704 6 7 C6.97259766 8.35544922 6.97259766 8.35544922 7.96484375 9.73828125 C13.08386562 17.22928554 13.08386562 17.22928554 12.69140625 20.8359375 C12.34916016 21.90714844 12.34916016 21.90714844 12 23 C9.19129012 23.84836976 6.37914854 24.67875496 3.5625 25.5 C2.3878418 25.85771484 2.3878418 25.85771484 1.18945312 26.22265625 C-4.15075943 27.76098908 -9.44080501 28.97512229 -15 28 C-17.234375 26.3125 -17.234375 26.3125 -18.75 24 C-19.57951172 22.77023438 -19.57951172 22.77023438 -20.42578125 21.515625 C-20.94527344 20.68546875 -21.46476562 19.8553125 -22 19 C-22.76376953 17.90945312 -22.76376953 17.90945312 -23.54296875 16.796875 C-26.02147071 13.15896176 -27.71392177 10.56909936 -27 6 C-19.36339121 2.27049338 -8.45054276 -1.72460056 0 0 Z " fill="#D9DFE4" transform="translate(107,55)"/>
<path d="M0 0 C3.4296875 1.53125 3.4296875 1.53125 6.875 3.5 C7.46796875 3.83386719 8.0609375 4.16773437 8.671875 4.51171875 C10.12104717 5.32979982 11.56146981 6.16334743 13 7 C12.70487202 11.28712228 11.14381808 13.25084833 8.00048828 16.09838867 C7.46407715 16.56092041 6.92766602 17.02345215 6.375 17.5 C5.82956543 17.98122314 5.28413086 18.46244629 4.72216797 18.95825195 C3.16127773 20.32188683 1.5850208 21.66455138 0 23 C-0.70640625 23.60199219 -1.4128125 24.20398438 -2.140625 24.82421875 C-5.91677557 27.79240918 -8.26741626 28.48583287 -13 28 C-16.4296875 26.46875 -16.4296875 26.46875 -19.875 24.5 C-20.46796875 24.16613281 -21.0609375 23.83226563 -21.671875 23.48828125 C-23.12104717 22.67020018 -24.56146981 21.83665257 -26 21 C-25.53504425 16.6966861 -23.09008984 14.94113762 -19.9375 12.1875 C-19.44161377 11.7538916 -18.94572754 11.3202832 -18.43481445 10.87353516 C-16.95716989 9.58163936 -15.47859617 8.29080655 -14 7 C-13.24203125 6.27167969 -12.4840625 5.54335937 -11.703125 4.79296875 C-11.03796875 4.16003906 -10.3728125 3.52710937 -9.6875 2.875 C-9.11386719 2.31554687 -8.54023437 1.75609375 -7.94921875 1.1796875 C-5.09696265 -0.54652761 -3.29270221 -0.41008013 0 0 Z " fill="#BEC0C6" transform="translate(47,93)"/>
<path d="M0 0 C3.98331077 1.49702449 5.39640102 3.73141019 7.5625 7.3125 C8.14128906 8.25738281 8.72007813 9.20226562 9.31640625 10.17578125 C9.87199219 11.10777344 10.42757812 12.03976563 11 13 C11.55816406 13.85851562 12.11632812 14.71703125 12.69140625 15.6015625 C16.58715563 22.7418315 13.07083892 31.7150845 11 39 C9.02 39.495 9.02 39.495 7 40 C5.16659519 37.32622836 3.36235912 34.63394322 1.5625 31.9375 C1.04623047 31.18533203 0.52996094 30.43316406 -0.00195312 29.65820312 C-3.96918664 23.66845841 -5.63574781 19.36611734 -4.2578125 12.0703125 C-3.89404136 10.75131499 -3.51625905 9.43610649 -3.125 8.125 C-2.93808594 7.44953125 -2.75117187 6.7740625 -2.55859375 6.078125 C-1.16852679 1.16852679 -1.16852679 1.16852679 0 0 Z " fill="#EEEFF3" transform="translate(76,65)"/>
<path d="M0 0 C4.61470476 3.392576 7.66665041 8.50392519 10.8125 13.25 C11.31458984 13.96285156 11.81667969 14.67570312 12.33398438 15.41015625 C16.38067078 21.52147857 16.89323262 26.10617445 15.59155273 33.23779297 C15.08098551 35.46158601 14.47001722 37.62797265 13.8125 39.8125 C13.61591797 40.54919922 13.41933594 41.28589844 13.21679688 42.04492188 C11.82052873 46.80082598 10.49974967 49.4902971 6 52 C2.56776041 53.1575931 -0.9020033 53.97302146 -4.4375 54.75 C-5.36626953 54.97042969 -6.29503906 55.19085938 -7.25195312 55.41796875 C-18.83123287 58.07172539 -18.83123287 58.07172539 -24.01171875 55.51171875 C-27.77258037 52.35062852 -30.18622665 48.93023723 -32.8125 44.8125 C-33.30169922 44.09513672 -33.79089844 43.37777344 -34.29492188 42.63867188 C-38.04794575 36.84043167 -39.68929167 31.69802617 -38.67407227 24.77856445 C-38.17543992 22.55921961 -37.557594 20.41939356 -36.875 18.25 C-36.67390625 17.52167969 -36.4728125 16.79335937 -36.265625 16.04296875 C-34.80911847 11.20841997 -33.1806557 8.0825368 -29 5 C-25.8150301 3.73111967 -22.58987266 2.9409476 -19.25 2.1875 C-18.3940625 1.97158203 -17.538125 1.75566406 -16.65625 1.53320312 C-11.22762295 0.23773531 -5.56448792 -1.07338478 0 0 Z M-16.6875 3.8125 C-17.43322266 3.97814453 -18.17894531 4.14378906 -18.94726562 4.31445312 C-24.49324315 5.62280488 -24.49324315 5.62280488 -29 9 C-29 9.99 -29 10.98 -29 12 C-30.32 12.33 -31.64 12.66 -33 13 C-33.7047491 15.3501719 -34.3887943 17.70341833 -35.0625 20.0625 C-35.26166016 20.71927734 -35.46082031 21.37605469 -35.66601562 22.05273438 C-37.17831713 27.43865025 -37.53171841 31.8973989 -34.95922852 37.1081543 C-33.6318833 39.4011161 -32.21600306 41.60584004 -30.75 43.8125 C-30.27175781 44.57498047 -29.79351562 45.33746094 -29.30078125 46.12304688 C-25.79091163 51.50746714 -25.79091163 51.50746714 -20 54 C-19.40034424 54.19779053 -18.80068848 54.39558105 -18.18286133 54.59936523 C-13.58987617 55.44234573 -8.87764242 53.52523947 -4.4375 52.375 C-3.38369141 52.12621094 -2.32988281 51.87742188 -1.24414062 51.62109375 C0.27083008 51.23244141 0.27083008 51.23244141 1.81640625 50.8359375 C2.73881104 50.60438965 3.66121582 50.3728418 4.61157227 50.13427734 C7.71225906 48.66174429 8.53218948 47.05223366 10 44 C10.99008017 41.06307822 10.99008017 41.06307822 11.6875 38 C11.93886719 36.989375 12.19023438 35.97875 12.44921875 34.9375 C12.96150074 32.20532938 13.10693049 29.77000877 13 27 C11.68 26.67 10.36 26.34 9 26 C9.99 25.34 10.98 24.68 12 24 C11.47311505 19.2216986 9.22828913 15.78817195 6.625 11.875 C6.22539063 11.25496094 5.82578125 10.63492188 5.4140625 9.99609375 C2.71709801 5.50450675 2.71709801 5.50450675 -1 2 C-6.46273057 1.47747795 -11.41583231 2.53970929 -16.6875 3.8125 Z " fill="#767B80" transform="translate(108,53)"/>
<path d="M0 0 C6.75 1.75 6.75 1.75 9 4 C8.84213047 10.39787024 6.15888734 15.31480737 3.1875 20.875 C2.74857422 21.74125 2.30964844 22.6075 1.85742188 23.5 C1.42365234 24.32242188 0.98988281 25.14484375 0.54296875 25.9921875 C0.15133545 26.73839355 -0.24029785 27.48459961 -0.64379883 28.25341797 C-2.29214944 30.3762443 -3.38495501 30.64559396 -6 31 C-6.10957031 30.40832031 -6.21914063 29.81664063 -6.33203125 29.20703125 C-7.25914403 24.58654237 -8.22351335 20.9123221 -11 17 C-10.38125 16.95875 -9.7625 16.9175 -9.125 16.875 C-8.42375 16.58625 -7.7225 16.2975 -7 16 C-6.24320565 14.03233469 -5.6025301 12.02024799 -5 10 C-3.41532506 6.62439084 -1.71453418 3.31127593 0 0 Z " fill="#29B8C3" transform="translate(66,27)"/>
<path d="M0 0 C0.99 0.33 1.98 0.66 3 1 C5.26913213 6.78628693 5.25523372 10.98209185 2.87670898 16.70068359 C2.42110596 17.59094238 1.96550293 18.48120117 1.49609375 19.3984375 C1.00302734 20.37167969 0.50996094 21.34492188 0.00195312 22.34765625 C-0.51431641 23.34667969 -1.03058594 24.34570312 -1.5625 25.375 C-2.08263672 26.39722656 -2.60277344 27.41945313 -3.13867188 28.47265625 C-4.41860474 30.98555196 -5.70587131 33.49439392 -7 36 C-7.99 36 -8.98 36 -10 36 C-12.14164932 30.64587669 -13.24128291 25.35381447 -11.20068359 19.84033203 C-10.10563461 17.61254308 -8.92710126 15.46306404 -7.6875 13.3125 C-7.28337891 12.57966797 -6.87925781 11.84683594 -6.46289062 11.09179688 C-4.38652973 7.34759487 -2.22824649 3.65605492 0 0 Z " fill="#51C3CE" transform="translate(40,8)"/>
<path d="M0 0 C3.68841579 0.25733133 5.69319878 0.77168281 8.6875 3 C12.89871588 8.46319897 14.40106502 14.13489479 14 21 C12.94604492 23.83666992 12.94604492 23.83666992 11.48046875 26.73046875 C10.68866211 28.30538086 10.68866211 28.30538086 9.88085938 29.91210938 C9.04264648 31.53342773 9.04264648 31.53342773 8.1875 33.1875 C7.64029297 34.27998047 7.09308594 35.37246094 6.52929688 36.49804688 C1.03559379 47.30565913 1.03559379 47.30565913 -3.32617188 48.79345703 C-8.6544105 49.20504303 -13.56916247 46.68954821 -18.5 44.875 C-19.62792969 44.483125 -20.75585938 44.09125 -21.91796875 43.6875 C-28.99082985 41.12620355 -33.70500071 39.26777806 -37.36328125 32.46484375 C-37.67652344 31.63082031 -37.98976563 30.79679687 -38.3125 29.9375 C-38.63863281 29.10089844 -38.96476562 28.26429687 -39.30078125 27.40234375 C-40 25 -40 25 -40 21 C-39.34 21 -38.68 21 -38 21 C-37.49166409 22.24663331 -36.99368855 23.49749387 -36.5 24.75 C-36.2215625 25.44609375 -35.943125 26.1421875 -35.65625 26.859375 C-35 29 -35 29 -35 33 C-34.01 33 -33.02 33 -32 33 C-31.47148438 33.74636719 -30.94296875 34.49273437 -30.3984375 35.26171875 C-27.04066796 39.09526346 -23.36120668 40.17720913 -18.625 41.8125 C-17.78710938 42.12380859 -16.94921875 42.43511719 -16.0859375 42.75585938 C-11.67580561 44.33338297 -7.73860935 45.708644 -3 45 C0.74639906 41.85764537 2.52543483 37.53964765 4.6875 33.25 C5.10322266 32.46367188 5.51894531 31.67734375 5.94726562 30.8671875 C8.41696526 25.98456294 9.36399209 22.57663355 9 17 C9.2784375 15.9171875 9.2784375 15.9171875 9.5625 14.8125 C10.28151574 11.8337205 9.27056286 9.68085302 8.16796875 6.90625 C6.1528446 3.61735172 3.45673661 2.56531469 0 1 C0 0.67 0 0.34 0 0 Z " fill="#18494D" transform="translate(65,12)"/>
<path d="M0 0 C-4.2040939 2.37622699 -8.62918289 3.07144787 -13.3203125 4.0234375 C-16.13084593 4.72298402 -16.13084593 4.72298402 -17.1796875 7.0390625 C-17.45039062 7.68617187 -17.72109375 8.33328125 -18 9 C-18.99 9.33 -19.98 9.66 -21 10 C-21.92472081 12.40787692 -22.62391313 14.63962487 -23.25 17.125 C-23.435625 17.77726562 -23.62125 18.42953125 -23.8125 19.1015625 C-25.19607314 24.38429631 -25.61482877 28.97920286 -22.97314453 33.92089844 C-21.68873051 35.93548962 -20.33775814 37.87679239 -18.9375 39.8125 C-14 46.78427694 -14 46.78427694 -14 49 C-13.01 49.33 -12.02 49.66 -11 50 C-11.33 50.66 -11.66 51.32 -12 52 C-16.94822451 49.90105373 -18.8534426 46.32559682 -21.6875 41.9375 C-22.18572266 41.21111328 -22.68394531 40.48472656 -23.19726562 39.73632812 C-27.00754675 33.88907174 -28.70175119 28.77474238 -27.67358398 21.77905273 C-27.17547546 19.5593551 -26.55766138 17.41960773 -25.875 15.25 C-25.57335937 14.15751953 -25.57335937 14.15751953 -25.265625 13.04296875 C-23.810854 8.21418068 -22.08290109 5.18809984 -18 2 C-15.09765625 0.8203125 -15.09765625 0.8203125 -12.0625 0.125 C-10.56396484 -0.24238281 -10.56396484 -0.24238281 -9.03515625 -0.6171875 C-5.77487437 -1.02839422 -3.19686377 -0.69559182 0 0 Z " fill="#888D93" transform="translate(97,56)"/>
<path d="M0 0 C3.68841579 0.25733133 5.69319878 0.77168281 8.6875 3 C12.90695017 8.4738813 14.37977143 14.12513634 14 21 C13.02197266 23.68481445 13.02197266 23.68481445 11.6640625 26.36328125 C11.17679688 27.33201172 10.68953125 28.30074219 10.1875 29.29882812 C9.671875 30.29333984 9.15625 31.28785156 8.625 32.3125 C8.11710937 33.32634766 7.60921875 34.34019531 7.0859375 35.38476562 C3.28097625 42.85951188 3.28097625 42.85951188 1 44 C1.6076871 38.37675458 3.82920069 34.12545357 6.56054688 29.29882812 C8.87193631 24.97753483 9.22310712 21.84542899 9 17 C9.185625 16.278125 9.37125 15.55625 9.5625 14.8125 C10.28151574 11.8337205 9.27056286 9.68085302 8.16796875 6.90625 C6.1528446 3.61735172 3.45673661 2.56531469 0 1 C0 0.67 0 0.34 0 0 Z " fill="#113A3E" transform="translate(65,12)"/>
<path d="M0 0 C2.1563694 2.1563694 2.36359298 3.03312873 3.125 5.875 C4.39312738 9.52667569 5.72435698 10.80202159 9.1875 12.5 C10.44750055 13.02670293 11.71549949 13.53623735 13 14 C12.67 14.66 12.34 15.32 12 16 C9.03 15.67 6.06 15.34 3 15 C1.36931195 18.03873604 -0.25467136 21.08074619 -1.875 24.125 C-2.56529297 25.40890625 -2.56529297 25.40890625 -3.26953125 26.71875 C-5.57975593 31.07134722 -7.64116434 35.23626578 -9 40 C-9.33 39.34 -9.66 38.68 -10 38 C-10.99 37.67 -11.98 37.34 -13 37 C-12.01 37 -11.02 37 -10 37 C-9.65001953 35.78763672 -9.65001953 35.78763672 -9.29296875 34.55078125 C-8.27336469 31.75072054 -7.20763367 29.39198966 -5.80078125 26.79296875 C-5.39666016 26.04080078 -4.99253906 25.28863281 -4.57617188 24.51367188 C-3.73593491 22.96696055 -2.88177043 21.4277319 -2.01367188 19.89648438 C0.9723369 14.25624559 1.50088394 10.21727667 0 4 C-0.33 3.01 -0.66 2.02 -1 1 C-0.67 0.67 -0.34 0.34 0 0 Z " fill="#1F6A71" transform="translate(43,7)"/>
<path d="M0 0 C-3.87555354 2.27611875 -8.04257204 3.12005537 -12.375 4.125 C-13.1175 4.30675781 -13.86 4.48851563 -14.625 4.67578125 C-18.81303023 5.65989436 -22.66730928 6.35449288 -27 6 C-28.875 4.5 -28.875 4.5 -30 3 C-29.01 2.34 -28.02 1.68 -27 1 C-26.34 1.66 -25.68 2.32 -25 3 C-22.58350996 2.87115404 -22.58350996 2.87115404 -19.875 2.25 C-18.88886719 2.05277344 -17.90273437 1.85554688 -16.88671875 1.65234375 C-14.46071933 1.10411384 -12.08117748 0.48384088 -9.6875 -0.1875 C-5.98678205 -1.00291243 -3.64222852 -0.91055713 0 0 Z " fill="#787D82" transform="translate(114,104)"/>
<path d="M0 0 C0.66 0.33 1.32 0.66 2 1 C1.41089844 2.07378906 0.82179688 3.14757812 0.21484375 4.25390625 C-0.54522821 5.68959773 -1.30428974 7.12582446 -2.0625 8.5625 C-2.45244141 9.26697266 -2.84238281 9.97144531 -3.24414062 10.69726562 C-5.77325449 15.5540595 -6.3658086 18.49537744 -5 24 C-4.855625 24.763125 -4.71125 25.52625 -4.5625 26.3125 C-4.06056017 28.23758222 -4.06056017 28.23758222 -2 30 C-3.32 30.33 -4.64 30.66 -6 31 C-6.10957031 30.40832031 -6.21914063 29.81664063 -6.33203125 29.20703125 C-7.25914403 24.58654237 -8.22351335 20.9123221 -11 17 C-10.38125 16.95875 -9.7625 16.9175 -9.125 16.875 C-8.42375 16.58625 -7.7225 16.2975 -7 16 C-6.24320565 14.03233469 -5.6025301 12.02024799 -5 10 C-3.41532506 6.62439084 -1.71453418 3.31127593 0 0 Z " fill="#24A2AB" transform="translate(66,27)"/>
<path d="M0 0 C0.66 1.32 1.32 2.64 2 4 C0.69921875 6.98828125 0.69921875 6.98828125 -1.3125 10.3125 C-4.12717034 14.98518456 -5.52279449 18.54325875 -6 24 C-6.12375 23.360625 -6.2475 22.72125 -6.375 22.0625 C-6.58125 21.381875 -6.7875 20.70125 -7 20 C-7.66 19.67 -8.32 19.34 -9 19 C-6.03 12.73 -3.06 6.46 0 0 Z " fill="#1E5256" transform="translate(34,13)"/>
<path d="M0 0 C2.31 0 4.62 0 7 0 C8.56115685 3.12231369 7.14573574 5.29966541 6.125 8.5625 C4.46574066 14.11815801 3.398173 19.22649147 3 25 C1.35 24.67 -0.3 24.34 -2 24 C-1.56042969 23.36707031 -1.12085937 22.73414062 -0.66796875 22.08203125 C1.49206141 18.09078115 2.54503139 14.06063513 3.6875 9.6875 C3.91244141 8.85154297 4.13738281 8.01558594 4.36914062 7.15429688 C4.91960622 5.10469092 5.46074385 3.05258367 6 1 C4.02 1 2.04 1 0 1 C0 0.67 0 0.34 0 0 Z " fill="#C4C9CE" transform="translate(100,55)"/>
<path d="M0 0 C0.66 0.99 1.32 1.98 2 3 C-0.42342745 5.93362271 -2.23742891 6.61519159 -6 7 C-8.89453125 6.22265625 -8.89453125 6.22265625 -11.8125 5.0625 C-12.78832031 4.68222656 -13.76414063 4.30195312 -14.76953125 3.91015625 C-15.50558594 3.60980469 -16.24164063 3.30945312 -17 3 C-17 2.34 -17 1.68 -17 1 C-11.25 1.875 -11.25 1.875 -9 3 C-4.73553292 3.45079626 -4.73553292 3.45079626 -1.125 1.5 C-0.75375 1.005 -0.3825 0.51 0 0 Z " fill="#1B4548" transform="translate(65,54)"/>
<path d="M0 0 C0.99 0.66 1.98 1.32 3 2 C5.27912938 2.45394552 5.27912938 2.45394552 7.6875 2.625 C8.49574219 2.69976562 9.30398437 2.77453125 10.13671875 2.8515625 C10.75160156 2.90054688 11.36648437 2.94953125 12 3 C12 3.33 12 3.66 12 4 C10.23186888 4.24915939 8.46025018 4.47366632 6.6875 4.6875 C5.70136719 4.81511719 4.71523437 4.94273438 3.69921875 5.07421875 C1 5 1 5 -0.85546875 3.51953125 C-1.42201172 2.76736328 -1.42201172 2.76736328 -2 2 C-1.34 1.34 -0.68 0.68 0 0 Z " fill="#7F848A" transform="translate(86,105)"/>
<path d="M0 0 C-3 2 -3 2 -5.0625 2.5 C-7.22063299 2.88197631 -7.22063299 2.88197631 -9 5 C-9.66 4.67 -10.32 4.34 -11 4 C-12.66619446 3.9603287 -14.33391013 3.95615553 -16 4 C-11.17353323 0.78235549 -5.80178176 -0.36261136 0 0 Z " fill="#95999E" transform="translate(114,80)"/>
<path d="M0 0 C0.66 0.33 1.32 0.66 2 1 C1.51789062 1.47050781 1.03578125 1.94101563 0.5390625 2.42578125 C-0.09257812 3.04839844 -0.72421875 3.67101562 -1.375 4.3125 C-2.00148438 4.92738281 -2.62796875 5.54226562 -3.2734375 6.17578125 C-5.18086607 8.08812528 -5.18086607 8.08812528 -7 11 C-7 10.34 -7 9.68 -7 9 C-7.99 8.67 -8.98 8.34 -10 8 C-9.01 7.34 -8.02 6.68 -7 6 C-5.75812117 4.97352199 -4.5292978 3.93108866 -3.3125 2.875 C-2.68988281 2.33617188 -2.06726563 1.79734375 -1.42578125 1.2421875 C-0.95527344 0.83226563 -0.48476563 0.42234375 0 0 Z " fill="#ECEDEE" transform="translate(32,90)"/>
<path d="M0 0 C0.99 0.33 1.98 0.66 3 1 C3 2.98 3 4.96 3 7 C2.34 7 1.68 7 1 7 C0.67 7.66 0.34 8.32 0 9 C-0.87890625 2.84765625 -0.87890625 2.84765625 -1 1 C-0.67 0.67 -0.34 0.34 0 0 Z " fill="#6F7378" transform="translate(121,77)"/>
<path d="M0 0 C0.33 0.99 0.66 1.98 1 3 C-0.65 4.65 -2.3 6.3 -4 8 C-4.99 7.67 -5.98 7.34 -7 7 C-4.69 4.69 -2.38 2.38 0 0 Z " fill="#A0A4A9" transform="translate(39,92)"/>
<path d="M0 0 C4.21912747 0.4794463 6.79663178 1.16625119 10 4 C8 5 8 5 6.0546875 4.44140625 C5.33539063 4.15136719 4.61609375 3.86132812 3.875 3.5625 C3.15054688 3.27503906 2.42609375 2.98757812 1.6796875 2.69140625 C0.84824219 2.34916016 0.84824219 2.34916016 0 2 C0 1.34 0 0.68 0 0 Z " fill="#113E41" transform="translate(48,55)"/>
<path d="M0 0 C0.66 1.32 1.32 2.64 2 4 C1.67 4.33 1.34 4.66 1 5 C0.63239269 7.32817964 0.29758419 9.6618385 0 12 C-0.12375 11.360625 -0.2475 10.72125 -0.375 10.0625 C-0.58125 9.381875 -0.7875 8.70125 -1 8 C-1.66 7.67 -2.32 7.34 -3 7 C-2.01 4.69 -1.02 2.38 0 0 Z " fill="#25595E" transform="translate(28,25)"/>
<path d="M0 0 C0.66 0.33 1.32 0.66 2 1 C-0.31 3.31 -2.62 5.62 -5 8 C-5.66 7.34 -6.32 6.68 -7 6 C-4.69 4.02 -2.38 2.04 0 0 Z " fill="#979BA0" transform="translate(31,100)"/>
<path d="M0 0 C1.89213369 2.38573379 3.02391783 4.07175348 4 7 C3.01 7 2.02 7 1 7 C-0.0625 4.625 -0.0625 4.625 -1 2 C-0.67 1.34 -0.34 0.68 0 0 Z " fill="#8E9399" transform="translate(71,85)"/>
</svg>
