<svg xmlns="http://www.w3.org/2000/svg" width="48" height="48" viewBox="0 -51.5 256 256" preserveAspectRatio="xMidYMid" xmlns:v="https://vecta.io/nano"><path d="M232.138 0H23.759C10.572 0-.103 10.78.001 23.862v79.542c0 13.187 10.676 23.862 23.863 23.862h98.694l45.109 25.118-10.257-25.118h74.727c13.188 0 23.862-10.675 23.862-23.862V23.862C256 10.675 245.325 0 232.138 0zM19.364 18.42c-2.931.209-5.128 1.256-6.594 3.244-1.465 1.884-1.988 4.291-1.675 7.012 6.175 39.248 11.931 65.727 17.269 79.437 2.093 5.023 4.5 7.431 7.326 7.222 4.396-.314 9.629-6.384 15.804-18.211l15.071-30.142c5.651 19.781 13.396 34.643 23.13 44.585 2.721 2.826 5.547 4.082 8.268 3.872 2.408-.209 4.291-1.465 5.547-3.768 1.047-1.988 1.465-4.291 1.256-6.907-.628-9.524.314-22.816 2.931-39.875 2.721-17.583 6.07-30.247 10.152-37.782.837-1.57 1.151-3.14 1.047-5.024-.209-2.407-1.256-4.396-3.244-5.966s-4.187-2.303-6.594-2.093c-3.035.209-5.338 1.675-6.907 4.605-6.489 11.827-11.094 30.979-13.815 57.563-3.977-10.047-7.327-21.874-9.943-35.794-1.151-6.175-3.977-9.105-8.582-8.791-3.14.209-5.756 2.303-7.849 6.28L39.04 81.53c-3.768-15.176-7.326-33.701-10.571-55.575-.733-5.442-3.768-7.954-9.105-7.536zm201.68 7.536c7.431 1.57 12.978 5.547 16.746 12.141 3.349 5.652 5.023 12.455 5.023 20.618 0 10.78-2.721 20.618-8.163 29.619-6.279 10.466-14.443 15.699-24.595 15.699-1.779 0-3.663-.209-5.652-.628-7.43-1.57-12.978-5.546-16.746-12.14-3.349-5.756-5.023-12.664-5.023-20.723 0-10.78 2.721-20.618 8.163-29.514 6.384-10.466 14.548-15.699 24.595-15.699 1.779 0 3.663.209 5.651.628zm-4.395 56.621c3.872-3.454 6.489-8.582 7.954-15.49.419-2.407.732-5.024.732-7.745 0-3.035-.628-6.28-1.884-9.524-1.57-4.082-3.663-6.28-6.175-6.803-3.767-.733-7.43 1.361-10.884 6.489-2.826 3.977-4.605 8.163-5.547 12.455-.524 2.407-.733 5.024-.733 7.64 0 3.035.628 6.279 1.884 9.524 1.57 4.082 3.663 6.279 6.175 6.803 2.616.523 5.442-.628 8.478-3.349zm-44.481-44.48c-3.768-6.594-9.419-10.571-16.746-12.141-1.989-.419-3.872-.628-5.652-.628-10.047 0-18.21 5.233-24.595 15.699-5.443 8.896-8.163 18.734-8.163 29.514 0 8.059 1.675 14.967 5.023 20.723 3.768 6.594 9.315 10.57 16.746 12.14 1.988.419 3.872.628 5.652.628 10.152 0 18.315-5.233 24.595-15.699 5.443-9.001 8.163-18.839 8.163-29.619 0-8.163-1.675-14.966-5.023-20.618zM158.98 67.087c-1.465 6.907-4.082 12.036-7.954 15.49-3.035 2.721-5.861 3.872-8.477 3.349-2.512-.524-4.605-2.721-6.175-6.803-1.256-3.244-1.884-6.489-1.884-9.524 0-2.616.209-5.233.733-7.64.942-4.291 2.721-8.477 5.546-12.455 3.454-5.128 7.117-7.222 10.885-6.489 2.512.523 4.605 2.721 6.175 6.803 1.256 3.245 1.884 6.489 1.884 9.524 0 2.721-.209 5.338-.733 7.745z" fill="#7f54b3" fill-rule="evenodd"/></svg>