<?xml version="1.0" encoding="UTF-8"?>
<svg version="1.1" xmlns="http://www.w3.org/2000/svg" width="128" height="128">
<path d="M0 0 C7.3142163 4.27563383 12.69977624 9.88412328 15.5625 17.9375 C16.09123471 20.30336379 16.36044675 22.51286098 16.5625 24.9375 C12.32569223 24.68827601 10.1086349 24.3967498 6.8125 21.625 C1.5625 15.35416667 1.5625 15.35416667 1.5625 12.9375 C-5.25287698 9.40360083 -10.72758216 8.04151242 -18.4375 8.9375 C-24.24315782 10.90822789 -27.82931028 14.96234901 -30.6875 20.25 C-31.05875 21.0853125 -31.05875 21.0853125 -31.4375 21.9375 C-30.65375 22.246875 -29.87 22.55625 -29.0625 22.875 C-26.4375 23.9375 -26.4375 23.9375 -24.4375 24.9375 C-24.025 24.009375 -23.6125 23.08125 -23.1875 22.125 C-20.61741632 17.44377615 -20.61741632 17.44377615 -17.4375 15.9375 C-12.5023879 15.08986624 -9.38872436 15.3272806 -5.125 18.0625 C-2.4375 20.9375 -2.4375 20.9375 -0.4375 24 C3.64334581 29.99374229 8.79909358 31.53817453 15.5625 32.9375 C14.52314275 39.56340246 11.45854295 45.40863392 6.375 49.84765625 C-1.87225975 55.51764733 -9.51858871 56.8793197 -19.4375 55.9375 C-27.0914258 53.98901584 -33.78246711 49.06182294 -38.046875 42.4375 C-40.35640998 38.07792835 -41.72212238 34.93618055 -41.4375 29.9375 C-37.24382522 30.18418675 -34.9837876 30.49053742 -31.6875 33.1875 C-29.4375 35.9375 -29.4375 35.9375 -28.0625 38.5 C-24.96795223 43.14182166 -20.76403771 44.61656346 -15.5625 45.875 C-9.39252378 46.36620199 -4.20508263 44.4042175 0.5 40.5 C2.23896024 38.33947364 3.52132868 36.49310234 4.5625 33.9375 C2.0875 31.9575 2.0875 31.9575 -0.4375 29.9375 C-0.84742188 30.43121094 -1.25734375 30.92492188 -1.6796875 31.43359375 C-2.21851563 32.07425781 -2.75734375 32.71492188 -3.3125 33.375 C-3.84617188 34.01308594 -4.37984375 34.65117188 -4.9296875 35.30859375 C-6.71775872 37.24026654 -7.81335504 37.8627007 -10.42578125 38.17578125 C-14.30246441 38.29957449 -16.75838238 38.32336228 -20.1875 36.375 C-22.02096126 34.3887503 -23.22123488 32.69615322 -24.625 30.4375 C-28.40497015 24.82773538 -35.15202665 23.41814268 -41.4375 21.9375 C-39.75344776 12.50680744 -35.1624862 6.83238554 -27.5625 1.1640625 C-19.39046761 -3.55288266 -8.53825766 -3.97493159 0 0 Z " fill="#DC5F12" transform="translate(77.4375,20.0625)"/>
<path d="M0 0 C1.32 0 2.64 0 4 0 C4.66 2.64 5.32 5.28 6 8 C6.66 5.36 7.32 2.72 8 0 C9.65 0.33 11.3 0.66 13 1 C13.66 3.31 14.32 5.62 15 8 C15.66 5.36 16.32 2.72 17 0 C18.32 0 19.64 0 21 0 C19.07289294 11.52164009 19.07289294 11.52164009 17 17 C15.68 17 14.36 17 13 17 C12.34 14.69 11.68 12.38 11 10 C9.79371992 12.33214148 8.8345262 14.49642139 8 17 C6.68 17 5.36 17 4 17 C3.32844651 14.73050898 2.6626037 12.4596039 2 10.1875 C1.443125 8.29064453 1.443125 8.29064453 0.875 6.35546875 C0 3 0 3 0 0 Z " fill="#DC5F12" transform="translate(3,90)"/>
<path d="M0 0 C8.625 -0.25 8.625 -0.25 12 2 C12.43132515 6.05445642 12.30019361 7.54970958 10 11 C6.875 11.1875 6.875 11.1875 4 11 C4 12.98 4 14.96 4 17 C2.68 17 1.36 17 0 17 C0 11.39 0 5.78 0 0 Z M4 3 C4 4.32 4 5.64 4 7 C5.32 7 6.64 7 8 7 C8 5.68 8 4.36 8 3 C6.68 3 5.36 3 4 3 Z " fill="#DC5F12" transform="translate(25,90)"/>
<path d="M0 0 C4 0 4 0 6.875 0.5625 C10.02620207 1.16590737 10.02620207 1.16590737 13.25 0.4375 C14.1575 0.293125 15.065 0.14875 16 0 C18 2 18 2 18.1953125 4.6015625 C18.17210938 5.59929687 18.14890625 6.59703125 18.125 7.625 C18.10695313 8.62789062 18.08890625 9.63078125 18.0703125 10.6640625 C18.04710938 11.43492188 18.02390625 12.20578125 18 13 C17.34 13 16.68 13 16 13 C15.67 9.7 15.34 6.4 15 3 C13.68 3.33 12.36 3.66 11 4 C10.67 6.97 10.34 9.94 10 13 C9.34 13 8.68 13 8 13 C7.67 9.7 7.34 6.4 7 3 C6.01 3 5.02 3 4 3 C3.34 6.3 2.68 9.6 2 13 C1.34 13 0.68 13 0 13 C0 8.71 0 4.42 0 0 Z " fill="#DC5F12" transform="translate(81,94)"/>
<path d="M0 0 C4.4297642 0.79102932 5.89210172 1.98974785 8.5 5.625 C9.21235686 9.4242366 8.81263988 11.06224821 6.9375 14.4375 C3.77350128 17.27698603 1.70842764 17.54984951 -2.5 17.625 C-5.18090941 16.82797288 -6.13374549 16.13775631 -7.75 13.875 C-8.75828913 10.8501326 -8.95341075 8.79887527 -8.5 5.625 C-5.89210172 1.98974785 -4.4297642 0.79102932 0 0 Z M-5.4375 3.75 C-7.02990283 6.56012264 -6.95319325 8.45264724 -6.5 11.625 C-5.08333333 14.20833333 -5.08333333 14.20833333 -2.5 15.625 C1.12649951 15.71416154 1.12649951 15.71416154 4.5 14.625 C6.87222995 11.72920618 6.87222995 11.72920618 6.25 8.0625 C5.8141556 4.57907388 5.8141556 4.57907388 3.5 2.625 C-1.16228885 2.1609554 -1.16228885 2.1609554 -5.4375 3.75 Z " fill="#DC5F12" transform="translate(47.5,89.375)"/>
<path d="M0 0 C7 0 7 0 8.9375 1.0625 C10.6140629 4.11976176 10.36528977 6.5906288 10 10 C8.75 11.9375 8.75 11.9375 7 13 C5.68 13 4.36 13 3 13 C2.67 14.32 2.34 15.64 2 17 C1.34 17 0.68 17 0 17 C0 11.39 0 5.78 0 0 Z M3 2 C1.58422523 3.18424326 1.58422523 3.18424326 1.9375 6.5625 C1.958125 7.696875 1.97875 8.83125 2 10 C3.65614657 10.38218767 5.32457024 10.71395102 7 11 C8.41577477 9.81575674 8.41577477 9.81575674 8.0625 6.4375 C8.041875 5.303125 8.02125 4.16875 8 3 C6.34385343 2.61781233 4.67542976 2.28604898 3 2 Z " fill="#DC5F12" transform="translate(58,94)"/>
<path d="M0 0 C2 2 2 2 2.125 4.625 C2.08375 5.40875 2.0425 6.1925 2 7 C-0.64 7 -3.28 7 -6 7 C-5.01 8.485 -5.01 8.485 -4 10 C-0.91634129 10.2502157 -0.91634129 10.2502157 2 10 C2 10.66 2 11.32 2 12 C-4.37426409 13.32296047 -4.37426409 13.32296047 -6.9375 12 C-8.58367385 8.90131981 -8.36841966 6.43858351 -8 3 C-5.94362059 -0.35514536 -3.76397853 -0.48256135 0 0 Z M-5 2 C-5.33 2.99 -5.66 3.98 -6 5 C-4.02 5 -2.04 5 0 5 C-0.33 4.01 -0.66 3.02 -1 2 C-2.32 2 -3.64 2 -5 2 Z " fill="#DC5F12" transform="translate(124,94)"/>
<path d="M0 0 C3.3 0 6.6 0 10 0 C8.6302836 3.99500618 6.74277578 6.80009492 4 10 C6.97 10.495 6.97 10.495 10 11 C10 11.66 10 12.32 10 13 C6.7 13 3.4 13 0 13 C1.19344938 8.22620248 2.79645765 6.61425291 6 3 C3.03 2.505 3.03 2.505 0 2 C0 1.34 0 0.68 0 0 Z " fill="#DC5F12" transform="translate(105,94)"/>
<path d="M0 0 C0.99 0.33 1.98 0.66 3 1 C3 1.66 3 2.32 3 3 C3.99 3.33 4.98 3.66 6 4 C5.01 4.66 4.02 5.32 3 6 C2.74984127 9.58357241 2.74984127 9.58357241 3 13 C3.99 13.33 4.98 13.66 6 14 C6 14.66 6 15.32 6 16 C3.13275314 15.42655063 2.1385485 15.1385485 0 13 C-0.04241723 10.66705225 -0.04092937 8.33297433 0 6 C-0.33 5.01 -0.66 4.02 -1 3 C-0.67 2.01 -0.34 1.02 0 0 Z " fill="#DC5F12" transform="translate(70,91)"/>
<path d="M0 0 C0.66 0 1.32 0 2 0 C2 4.29 2 8.58 2 13 C1.34 13 0.68 13 0 13 C0 8.71 0 4.42 0 0 Z " fill="#DC5F12" transform="translate(101,94)"/>
<path d="M0 0 C0.66 0 1.32 0 2 0 C2 4.29 2 8.58 2 13 C1.34 13 0.68 13 0 13 C0 8.71 0 4.42 0 0 Z " fill="#DC5F12" transform="translate(77,94)"/>
<path d="M0 0 C0.66 0 1.32 0 2 0 C2 0.99 2 1.98 2 3 C1.34 3 0.68 3 0 3 C0 2.01 0 1.02 0 0 Z " fill="#DC5F12" transform="translate(101,90)"/>
<path d="M0 0 C0.66 0 1.32 0 2 0 C2 0.99 2 1.98 2 3 C1.34 3 0.68 3 0 3 C0 2.01 0 1.02 0 0 Z " fill="#DC5F12" transform="translate(77,90)"/>
</svg>
