<?xml version="1.0" encoding="UTF-8"?>
<svg version="1.1" xmlns="http://www.w3.org/2000/svg" width="128" height="128">
<path d="M0 0 C42.24 0 84.48 0 128 0 C128 42.24 128 84.48 128 128 C85.76 128 43.52 128 0 128 C0 85.76 0 43.52 0 0 Z " fill="#252A2F" transform="translate(0,0)"/>
<path d="M0 0 C-3.6327274 9.19713308 -17.01692037 14.52791702 -25.1875 19.125 C-27.47748658 20.41893886 -29.76652703 21.71455339 -32.0546875 23.01171875 C-32.91943443 23.50113701 -32.91943443 23.50113701 -33.801651 24.0004425 C-37.785408 26.26887447 -41.68686846 28.64654201 -45.5703125 31.08203125 C-46.62065674 31.72962402 -47.67100098 32.3772168 -48.75317383 33.04443359 C-50.73078292 34.26814925 -52.69536626 35.51328565 -54.64331055 36.78369141 C-61.8402723 41.18144441 -67.65081183 41.7261972 -76 41 C-72.5403004 38.10741233 -69.04824013 35.74992714 -65.125 33.53125 C-63.98506592 32.88349609 -62.84513184 32.23574219 -61.6706543 31.56835938 C-60.44716101 30.87880308 -59.22360827 30.18935224 -58 29.5 C-56.73779963 28.78492422 -55.47583902 28.06942509 -54.21411133 27.35351562 C-51.67577355 25.91364515 -49.13631899 24.47577276 -46.59619141 23.0390625 C-42.48279908 20.70999103 -38.38556666 18.35313383 -34.28857422 15.99536133 C-27.36360656 12.01418741 -20.41703996 8.08344894 -13.375 4.3125 C-12.76487061 3.98507813 -12.15474121 3.65765625 -11.52612305 3.3203125 C-7.44969112 1.16285958 -4.68854552 0 0 0 Z " fill="#CC5018" transform="translate(106,87)"/>
<path d="M0 0 C0.73120117 2.22119141 0.73120117 2.22119141 1 5 C-0.4753418 7.23583984 -0.4753418 7.23583984 -2.69921875 9.4609375 C-3.49650391 10.26144531 -4.29378906 11.06195313 -5.11523438 11.88671875 C-5.96408203 12.70785156 -6.81292969 13.52898437 -7.6875 14.375 C-8.51701172 15.21933594 -9.34652344 16.06367187 -10.20117188 16.93359375 C-14.85817859 21.52711281 -14.85817859 21.52711281 -17 23 C-19.27270508 22.72900391 -19.27270508 22.72900391 -21 22 C-21.71533203 19.76293945 -21.71533203 19.76293945 -22 17 C-20.63232422 14.87182617 -20.63232422 14.87182617 -18.5546875 12.79296875 C-17.80703125 12.04208984 -17.059375 11.29121094 -16.2890625 10.51757812 C-15.49242188 9.74865234 -14.69578125 8.97972656 -13.875 8.1875 C-13.1015625 7.39923828 -12.328125 6.61097656 -11.53125 5.79882812 C-5.13117874 -0.50840934 -5.13117874 -0.50840934 0 0 Z " fill="#FBFBFC" transform="translate(82,77)"/>
<path d="M0 0 C2.5 0.125 2.5 0.125 3.5 1.125 C3.59983058 3.11257028 3.63080753 5.1036752 3.6328125 7.09375 C3.63410156 8.30417969 3.63539062 9.51460937 3.63671875 10.76171875 C3.63285156 12.03660156 3.62898438 13.31148437 3.625 14.625 C3.62886719 15.89988281 3.63273437 17.17476562 3.63671875 18.48828125 C3.63542969 19.69871094 3.63414063 20.90914062 3.6328125 22.15625 C3.63168457 23.27580078 3.63055664 24.39535156 3.62939453 25.54882812 C3.5 28.125 3.5 28.125 2.5 29.125 C0 29.25 0 29.25 -2.5 29.125 C-4.30279191 27.32220809 -3.63036605 24.58452299 -3.6328125 22.15625 C-3.63410156 20.94582031 -3.63539062 19.73539063 -3.63671875 18.48828125 C-3.63285156 17.21339844 -3.62898437 15.93851563 -3.625 14.625 C-3.62886719 13.35011719 -3.63273438 12.07523438 -3.63671875 10.76171875 C-3.63542969 9.55128906 -3.63414063 8.34085938 -3.6328125 7.09375 C-3.63168457 5.97419922 -3.63055664 4.85464844 -3.62939453 3.70117188 C-3.45759306 0.28070192 -3.41403244 0.17070162 0 0 Z " fill="#FCFCFC" transform="translate(19.5,49.875)"/>
<path d="M0 0 C0 0.66 0 1.32 0 2 C-4.95 3.485 -4.95 3.485 -10 5 C-10 4.34 -10 3.68 -10 3 C-3.375 0 -3.375 0 0 0 Z " fill="#97999C" transform="translate(90,107)"/>
<path d="M0 0 C0.66 0 1.32 0 2 0 C1.01 2.97 0.02 5.94 -1 9 C-1.66 9 -2.32 9 -3 9 C-2.44271087 5.65626525 -1.64826111 2.96687001 0 0 Z " fill="#9B9D9F" transform="translate(47,65)"/>
</svg>
