<svg xmlns="http://www.w3.org/2000/svg" fill="#000000" width="48" height="48" viewBox="0 0 14 14" xmlns:v="https://vecta.io/nano"><path d="M3.625 2.424h4.73l-.178.48H3.625c-1.008 0-1.828.802-1.828 1.787v5.221c0 .9.633 1.788 2.136 1.788v.487h-.308c-1.274 0-2.32-1.021-2.32-2.274V4.691c0-1.252 1.035-2.267 2.32-2.267zM9.45 1h1.69c-3.654 9.613-3.704 10.142-4.695 11.169-.528.55-1.253.806-1.991.831v-1.3c1.252-.195 1.643-1.267 1.643-1.914 0-.51.015-.321-2.088-5.675h1.561l1.28 3.981L9.45 1zm3.245 3.597v7.59H7.253c.169-.245.271-.414.308-.494h4.641V4.597c0-.827-.435-1.321-1.225-1.6l.171-.447c1.058.347 1.547 1.095 1.547 2.046z"/></svg>